<?xml version="1.0" standalone="no"?>
<!DOCTYPE svg PUBLIC "-//W3C//DTD SVG 1.1//EN" "http://www.w3.org/Graphics/SVG/1.1/DTD/svg11.dtd" >
<!--
2013-9-30: Created.
-->
<svg>
<metadata>
Created by iconfont
</metadata>
<defs>

<font id="iconfont" horiz-adv-x="1024" >
  <font-face
    font-family="iconfont"
    font-weight="500"
    font-stretch="normal"
    units-per-em="1024"
    ascent="896"
    descent="-128"
  />
    <missing-glyph />
    
    <glyph glyph-name="lishihangcheng" unicode="&#59605;" d="M938.667 448v255.957c0 0.013 0 0.028 0 0.043 0 23.549-19.078 42.642-42.622 42.667l-128.045 0v-42.667l128-0.043v-213.291h-768v213.291l128 0.043v42.667h-128.043c-0.019 0-0.042 0-0.064 0-23.505 0-42.56-19.055-42.56-42.56 0-0.053 0-0.105 0-0.158l-0-703.907c-0-0.013-0-0.028-0-0.043 0-23.542 19.066-42.63 42.599-42.667l362.734-0v42.688l-362.667 0.021v447.957h810.667zM298.667 810.667h42.667v-170.667h-42.667v170.667zM682.667 810.667h42.667v-170.667h-42.667v170.667zM384 746.667h256v-42.667h-256v42.667zM746.667-21.333c0.004-0 0.008-0 0.013-0 94.257 0 170.667 76.41 170.667 170.667 0 94.257-76.41 170.667-170.667 170.667-0.005 0-0.009-0-0.014-0-94.25-0.007-170.653-76.415-170.653-170.667 0-94.252 76.403-170.659 170.653-170.667zM746.667-64c-117.824 0-213.333 95.509-213.333 213.333s95.509 213.333 213.333 213.333 213.333-95.509 213.333-213.333-95.509-213.333-213.333-213.333zM768 136.768v119.296c0 11.605-9.557 21.269-21.333 21.269-11.861 0-21.333-9.515-21.333-21.269v-128.128c-0-0.041-0-0.089-0-0.137 0-5.774 2.331-11.003 6.103-14.798l60.628-60.628c3.829-3.806 9.107-6.159 14.934-6.159 5.901 0 11.239 2.413 15.080 6.306 3.862 3.863 6.249 9.195 6.249 15.086 0 5.816-2.327 11.088-6.101 14.936l-54.226 54.226z"  horiz-adv-x="1024" />

    
    <glyph glyph-name="lishi" unicode="&#58944;" d="M960 0a448 448 0 0 1-282.88 416A448 448 0 0 1 954.88 768H960a64 64 0 0 1 0 128H64a64 64 0 0 1 0-128h5.12a448 448 0 0 1 277.76-352A448 448 0 0 1 64 0a64 64 0 0 1 0-128h896a64 64 0 0 1 0 128zM198.4 768h627.2a320 320 0 0 0-627.2 0zM192 0a320 320 0 0 0 640 0z"  horiz-adv-x="1024" />

    
    <glyph glyph-name="lishijilu" unicode="&#58962;" d="M515.396 797c229.198 0 415-185.802 415-415 0-104.959-39.436-208.142-120.273-292.344L516.856 391.222 515.396 797zM515.396 737c47.951 0 94.436-9.378 138.164-27.873 42.266-17.877 80.237-43.482 112.859-76.104s58.227-70.593 76.104-112.859c18.495-43.728 27.873-90.212 27.873-138.164s-9.378-94.436-27.873-138.164c-17.877-42.266-43.482-80.237-76.104-112.859s-70.593-58.227-112.859-76.104C609.832 36.37800000000004 563.347 27 515.396 27s-94.436 9.378-138.164 27.873c-42.266 17.877-80.237 43.482-112.859 76.104s-58.227 70.593-76.104 112.859c-18.495 43.728-27.873 90.213-27.873 138.164s9.378 94.436 27.873 138.164c17.877 42.266 43.482 80.237 76.104 112.859s70.593 58.227 112.859 76.104C420.96 727.6220000000001 467.445 737 515.396 737m0 60c-229.198 0-415-185.802-415-415s185.802-415 415-415 415 185.802 415 415-185.802 415-415 415zM515.396 691.867c-15.217 0-27.667-12.45-27.667-27.667v-277.589c0-15.217 12.45-27.667 27.667-27.667s27.667 12.45 27.667 27.667V664.2c0 15.217-12.45 27.667-27.667 27.667zM515.669 413.587c-7.092 0-14.183-2.69-19.563-8.07-10.76-10.76-10.76-28.367 0-39.126l141.398-141.398c5.38-5.38 12.471-8.07 19.563-8.07 7.092 0 14.183 2.69 19.563 8.07 10.76 10.76 10.76 28.367 0 39.126L535.233 405.517c-5.38 5.38-12.472 8.07-19.564 8.07z"  horiz-adv-x="1024" />

    
    <glyph glyph-name="lishi1" unicode="&#58965;" d="M252.8 675.2h22.4c19.2 0 33.6 14.4 33.6 32V840c0 19.2-14.4 33.6-33.6 33.6h-22.4c-19.2 0-33.6-14.4-33.6-33.6v-132.8c0-17.6 14.4-32 33.6-32zM913.6 763.2h-67.2v-56c0-41.6-33.6-78.4-78.4-78.4h-22.4c-41.6 0-78.4 33.6-78.4 78.4V763.2H355.2v-56c0-41.6-33.6-78.4-78.4-78.4h-22.4c-41.6 0-78.4 33.6-78.4 78.4V763.2H110.4c-38.4 0-67.2-28.8-67.2-67.2v-734.4c0-38.4 28.8-67.2 67.2-67.2H912c38.4 0 67.2 28.8 68.8 67.2V696c0 36.8-28.8 67.2-67.2 67.2zM110.4-38.4V540.8H912s0-579.2 1.6-579.2H110.4zM744 675.2h22.4c19.2 0 33.6 14.4 33.6 32V840c0 19.2-14.4 33.6-33.6 33.6h-22.4c-19.2 0-33.6-14.4-33.6-33.6v-132.8c0-17.6 14.4-32 33.6-32zM486.4 401.6v-164.8l81.6-89.6 36.8 33.6-68.8 73.6v147.2zM756.8 305.6c-14.4 62.4-54.4 116.8-110.4 153.6-59.2 35.2-126.4 46.4-188.8 32-38.4-8-75.2-27.2-105.6-52.8-14.4-12.8-27.2-25.6-38.4-40v25.6h-49.6v-128h129.6v48h-56c27.2 49.6 73.6 86.4 129.6 99.2 52.8 12.8 105.6 1.6 150.4-25.6 46.4-27.2 78.4-72 88-121.6 11.2-49.6 4.8-102.4-25.6-148.8-27.2-44.8-72-75.2-123.2-88-52.8-12.8-105.6-1.6-150.4 25.6-46.4 27.2-78.4 72-88 121.6l-48-8c14.4-62.4 54.4-116.8 110.4-153.6 40-25.6 86.4-38.4 132.8-38.4 19.2 0 38.4 1.6 56 6.4 65.6 14.4 120 54.4 155.2 108.8 35.2 54.4 46.4 120 32 184z"  horiz-adv-x="1024" />

    
    <glyph glyph-name="historical_curve" unicode="&#58982;" d="M624.51002027 93.6951808h-466.386944V268.46658560000003c21.88793173 50.98154667 54.90059947 97.47606187 102.32572586 124.15358293 112.1779712 68.28086613 170.70380373-107.30100053 263.3728-131.6880384 107.30100053-29.26291627 185.33471573 48.775168 219.47569494 136.56610134 24.38703787 68.2819584 24.38703787 263.36843093 126.80997546 268.24758613 39.01904213 0 39.01904213 58.52801707 0 53.64995413-112.1746944-9.75284907-136.5639168-121.93191253-156.07289173-209.72284586-9.75284907-58.52910933-19.5100672-126.80997547-63.40389547-170.70380374-53.64995413-58.52801707-136.56282453-24.38703787-180.4599296 24.38485334-63.40389547 82.9161472-165.82464853 136.56610133-263.3728 58.52910933-18.95738027-16.24855893-34.89792-34.00444587-48.67467946-52.42661547V752.79619413c0 22.89609387-18.56088747 41.45698133-41.45698134 41.45698134s-41.45698133-18.56088747-41.45698133-41.45698134v-700.5569024c0-22.89609387 18.56088747-41.45698133 41.45698133-41.45698133 0.30583467 0 0.60839253 0.016384 0.91313494 0.0229376 0.31894187-0.0065536 0.63460693-0.0229376 0.95464106-0.0229376h561.03185067c-25.1428864 21.9512832-44.38534827 50.48456533-55.05570133 82.9128704zM792.06045013 303.14495999999997c-86.687744 0-156.9619968-70.2742528-156.9619968-156.9619968 0-86.687744 70.2742528-156.9619968 156.9619968-156.9619968 86.687744 0 156.9619968 70.2742528 156.9619968 156.9619968 0.00109227 86.687744-70.27316053 156.9619968-156.9619968 156.9619968z m0-263.29197227c-58.7235328 0-106.3288832 47.6053504-106.3288832 106.3288832 0 58.72462507 47.6053504 106.3288832 106.3288832 106.3288832s106.3288832-47.6053504 106.3288832-106.3288832c0.00109227-58.7235328-47.60425813-106.3288832-106.3288832-106.3288832zM855.93074347 173.3476352h-40.25658027v40.25658027c0 11.45350827-9.28535893 20.7388672-20.7388672 20.7388672-11.45350827 0-20.7388672-9.28535893-20.7388672-20.7388672v-60.99544747c0-11.45350827 9.28535893-20.7388672 20.7388672-20.7388672h60.99544747c11.45350827 0 20.7388672 9.28535893 20.7388672 20.7388672 0 11.45350827-9.28535893 20.7388672-20.7388672 20.7388672z"  horiz-adv-x="1024" />

    
    <glyph glyph-name="lishifenxi" unicode="&#58927;" d="M128 304c0-166.4 137.6-304 304-304 156.8 0 284.8 118.4 300.8 272H400V604.8C246.4 588.8 128 460.8 128 304z m336 32H800v-32C800 99.2 636.8-64 432-64S64 99.2 64 304 227.2 672 432 672h32v-336zM608 480h252.8c-16 134.4-121.6 240-252.8 252.8V480zM576 800c195.2 0 352-156.8 352-352v-32H544V800h32z"  horiz-adv-x="1024" />

    
    <glyph glyph-name="lishishuju" unicode="&#58963;" d="M472.615385 817.230769C212.676923 817.230769 0 604.553846 0 344.615385s212.676923-472.615385 472.615385-472.615385 472.615385 212.676923 472.615384 472.615385H472.615385V817.230769zM1024 423.384615c0 259.938462-212.676923 472.615385-472.615385 472.615385v-472.615385h472.615385z"  horiz-adv-x="1024" />

    
    <glyph glyph-name="lishishuju1" unicode="&#59038;" d="M883.712 146.432c0 13.312-9.216 22.528-22.528 22.528h-67.072v98.816c0 13.312-9.216 22.528-22.528 22.528-13.312 0-22.528-9.216-22.528-22.528v-143.36h116.736c8.704-0.512 17.92 8.704 17.92 22.016zM188.928-41.472h349.696c13.312 0 23.552 15.872 23.552 29.184s-9.728 29.696-23.552 29.696H203.776c-31.232 0-58.368 12.8-58.368 44.032V706.56c0 31.232 26.112 44.032 57.344 44.032h486.912c31.232 0 44.544-13.312 44.544-44.544v-242.176c0-13.312 16.384-21.504 29.696-21.504 13.312 0 29.696 8.192 29.696 21.504V706.56c0 58.368-45.056 102.912-102.912 102.912h-501.76c-58.368 0-102.912-45.056-102.912-102.912v-645.12c0-58.368 44.544-102.912 102.912-102.912zM771.584-41.472c116.736 0 210.432 94.208 210.432 210.432s-94.208 210.432-210.432 210.432-210.432-94.208-210.432-210.432 93.696-210.432 210.432-210.432z m0 376.32c89.6 0 165.888-71.68 165.888-165.888 0-89.6-71.68-165.888-165.888-165.888-89.6 0-165.888 71.68-165.888 165.888 0 89.6 76.288 165.888 165.888 165.888zM229.376 594.432H650.24c13.312 0 22.528 9.216 22.528 22.528 0 13.312-9.216 22.528-22.528 22.528H229.376c-13.312 0-22.528-9.216-22.528-22.528s8.704-22.528 22.528-22.528z m165.888-420.864H229.376c-13.312 0-22.528-9.216-22.528-22.528s9.216-22.528 22.528-22.528h165.888c13.312 0 22.528 9.216 22.528 22.528s-9.216 22.528-22.528 22.528zM471.04 330.24H229.376c-13.312 0-22.528-9.216-22.528-22.528 0-13.312 9.216-22.528 22.528-22.528H471.04c13.312 0 22.528 9.216 22.528 22.528 0 13.312-8.704 22.528-22.528 22.528z m179.2 152.576H229.376c-13.312 0-22.528-9.216-22.528-22.528 0-13.312 9.216-22.528 22.528-22.528H650.24c13.312 0 22.528 9.216 22.528 22.528 0 13.312-8.704 22.528-22.528 22.528z"  horiz-adv-x="1024" />

    
    <glyph glyph-name="lishixiaoxi" unicode="&#58892;" d="M928 704a96 96 0 0 1-96 96H384a96 96 0 0 1-51.52-15.04 333.76 333.76 0 0 1-234.56-288A88.32 88.32 0 0 1 96 480v-320a96 96 0 0 1 96-96h448v-96h288v96h-32v16a112.32 112.32 0 0 1-54.4 96 112.32 112.32 0 0 1 54.4 96V288h32v96h-24.64a96 96 0 0 1 24.64 64zM432 464m-304 0a304 304 0 1 1 608 0 304 304 0 1 1-608 0ZM320 768m64 0l448 0q64 0 64-64l0-256q0-64-64-64l-448 0q-64 0-64 64l0 256q0 64 64 64ZM832 768H384a64 64 0 0 1-64-64v-32h32V704a32 32 0 0 0 32 32h448a32 32 0 0 0 32-32v-256a32 32 0 0 0-32-32H512v-32h320a64 64 0 0 1 64 64V704a64 64 0 0 1-64 64zM128 544m64 0l544 0q64 0 64-64l0-320q0-64-64-64l-544 0q-64 0-64 64l0 320q0 64 64 64ZM464 231.68a110.08 110.08 0 0 0-79.04 32l-204.16 205.12 22.4 22.4L407.36 288a80.64 80.64 0 0 1 113.28 0l204.16 204.16 22.4-22.4L544 264.64a110.08 110.08 0 0 0-80-32.96zM190.08 180.384l118.784 118.784 22.624-22.624-118.784-118.816zM597.12 276.8l22.4 22.4 64.064-64-22.4-22.4zM736 544H192a64 64 0 0 1-64-64v-320a64 64 0 0 1 64-64h416v32H192a32 32 0 0 0-32 32V480a32 32 0 0 0 32 32h544a32 32 0 0 0 32-32v-96h32v96a64 64 0 0 1-64 64zM704 352h160v-80a80 80 0 0 0-80-80 80 80 0 0 0-80 80V352zM864 0h-160v80a80 80 0 0 0 80 80 80 80 0 0 0 80-80V0zM896 352h-224v-32h32v-48a80 80 0 0 1 160 0V320h32z m-64-80a48 48 0 0 0-96 0V320h96zM896 32h-224v-32h224v32zM784 128a48 48 0 0 0 48-48V32h-96v48a48 48 0 0 0 48 48m0 32a80 80 0 0 1-80-80V0h160v80a80 80 0 0 1-80 80zM800 224h-32v-96h32v96zM320 640h32v-64h-32zM608 672h192v-32h-192zM480 608h320v-32H480z"  horiz-adv-x="1024" />

    
    <glyph glyph-name="lishishuju2" unicode="&#58979;" d="M668.294737 507.957895v2.694737s0 2.694737-2.694737 2.694736v2.694737l-94.315789 115.873684h-2.694737v2.694737H565.894737s-2.694737 0-2.694737 2.694737h-2.694737-2.694737-2.694737-2.694736s-2.694737 0-2.694737-2.694737h-2.694737v-2.694737h-2.694737l-94.315789-115.873684v-2.694737l-2.694737-2.694736v-10.778948s0-2.694737 2.694737-2.694737l2.694736-2.694736s2.694737 0 2.694737-2.694737h2.694737c2.694737 0 5.389474-2.694737 8.084211-2.694737h37.726315v-191.326316c0-10.778947 8.084211-18.863158 18.863158-18.863158s18.863158 8.084211 18.863158 18.863158v210.189474c0 10.778947-8.084211 18.863158-18.863158 18.863158h-16.168421l53.894737 67.368421 53.894737-67.368421H592.842105c-10.778947 0-18.863158-8.084211-18.863158-18.863158v-266.778948c0-10.778947 8.084211-18.863158 18.863158-18.863158s18.863158 8.084211 18.863158 18.863158v247.91579h37.726316c2.694737 0 5.389474 0 8.08421 2.694737h2.694737s2.694737 0 2.694737 2.694737l2.694737 2.694736 2.694737 2.694737v2.694737 2.694737 2.694737c0-2.694737 0-2.694737 0 0zM436.547368 300.463158V303.157895s0 2.694737-2.694736 2.694737v2.694736l-88.926316 110.484211h-2.694737v2.694737h-2.694737s-2.694737 0-2.694737 2.694737h-2.694737-2.694736-2.694737-2.694737s-2.694737 0-2.694737-2.694737h-2.694737v-2.694737h-2.694737l-88.926315-110.484211v-2.694736l-2.694737-2.694737v-10.778948s0-2.694737 2.694737-2.694736l2.694736-2.694737s2.694737 0 2.694737-2.694737h2.694737c2.694737 0 5.389474-2.694737 8.084211-2.694737h35.031579v-175.157895c0-10.778947 8.084211-18.863158 18.863157-18.863158s18.863158 8.084211 18.863158 18.863158v194.021053c0 10.778947-8.084211 18.863158-18.863158 18.863158h-13.473684l48.505263 61.978947 48.505264-61.978947h-13.473685c-10.778947 0-18.863158-8.084211-18.863158-18.863158v-194.021053c0-10.778947 8.084211-18.863158 18.863158-18.863158s18.863158 8.084211 18.863158 18.863158v175.157895h35.031579c2.694737 0 5.389474 0 8.084211 2.694737h2.694737s2.694737 0 2.694736 2.694737l2.694737 2.694737 2.694737 2.694736v2.694737 2.694737c-5.389474 0-2.694737 0-5.389474 2.694737 2.694737 0 0 0 0 0zM797.642105-17.515789c-10.778947 0-18.863158-8.084211-18.863158-18.863158 0-10.778947-10.778947-21.557895-21.557894-21.557895H126.652632c-10.778947 0-21.557895 10.778947-21.557895 21.557895v835.368421c0 10.778947 10.778947 21.557895 21.557895 21.557894h485.052631V734.315789c0-40.421053 32.336842-72.757895 72.757895-72.757894h91.621053v-307.2c0-10.778947 8.084211-18.863158 18.863157-18.863158s18.863158 8.084211 18.863158 18.863158V680.421053v5.389473 2.694737 2.694737c0 2.694737-2.694737 2.694737-2.694737 5.389474l-167.073684 158.989473h-2.694737l-2.694736 2.694737h-5.389474H126.652632c-32.336842 0-59.284211-26.947368-59.284211-59.28421v-835.368421c0-32.336842 26.947368-59.284211 59.284211-59.284211h633.263157c32.336842 0 59.284211 26.947368 59.284211 59.284211-2.694737 10.778947-10.778947 18.863158-21.557895 18.863158z m-148.210526 754.526315V796.294737l102.4-97.010526h-64.673684c-21.557895 0-37.726316 18.863158-37.726316 37.726315zM797.642105 316.631579c-88.926316 0-158.989474-72.757895-158.989473-158.989474s72.757895-158.989474 158.989473-158.989473 158.989474 72.757895 158.989474 158.989473-70.063158 158.989474-158.989474 158.989474z m0-280.252632c-67.368421 0-121.263158 53.894737-121.263158 121.263158s53.894737 121.263158 121.263158 121.263158 121.263158-53.894737 121.263158-121.263158-53.894737-121.263158-121.263158-121.263158zM881.178947 101.052632l-64.673684 64.673684v43.115789c0 10.778947-8.084211 18.863158-18.863158 18.863158s-18.863158-8.084211-18.863158-18.863158v-51.2c0-2.694737 0-5.389474 2.694737-8.08421 0-2.694737 2.694737-5.389474 5.389474-5.389474l70.063158-70.063158c2.694737-2.694737 8.084211-5.389474 13.473684-5.389474s10.778947 2.694737 13.473684 5.389474c5.389474 8.084211 5.389474 18.863158-2.694737 26.947369z"  horiz-adv-x="1024" />

    
    <glyph glyph-name="lishi2" unicode="&#59152;" d="M277.79 690l1.7 1.34-1.49-1.16zM812.16 623.06l-0.06 0.08-0.25 0.31 2-2.69-0.86 1.17zM743.76 90.44l0.08 0.07 0.31 0.24c-1.42-1.06-2.26-1.7-2.69-2l1.17 0.86zM929.43 529.84c-24.2 71.91-66.72 137.68-123.37 188.29C749.14 769 679.34 805.52 604.51 821.26 527.24 837.52 445.43 833.64 370.59 808 298.35 783.21 232.42 740 182 682.53c-50.73-57.81-86.91-128.47-101.75-204.11a479.79 479.79 0 0 1-7.92-60.89c-1-15.88 14.71-31.06 30.36-30.36 17.34 0.78 29.23 13.35 30.35 30.36q0.81 12.27 2.32 24.47a412.41 412.41 0 0 0 26.27 96.3 411.4 411.4 0 0 0 26.79 51.54q8.07 13.12 17.1 25.62c1.3 1.81 2.62 3.6 4 5.39l1.44 1.9c3 3.8 6.06 7.58 9.2 11.29a413.71 413.71 0 0 0 42.49 43.31q5.52 4.85 11.2 9.5l4 3.2 0.16 0.13 0.99 0.82 3.16 2.48-2.68-2.12c0.66 0.52 1.37 1.07 1.85 1.42q12 9 24.73 17.17A411.38 411.38 0 0 0 364.44 741a412 412 0 0 0 96.16 26.21 419.29 419.29 0 0 0 102.11 0 412.31 412.31 0 0 0 96.36-26.29A411.16 411.16 0 0 0 710.79 714q13-8 25.43-17 3-2.15 5.88-4.33l1.31-1c4-3.14 7.87-6.31 11.72-9.57a411.9 411.9 0 0 0 43.41-42.71q4.8-5.49 9.41-11.14c1.32-1.61 2.61-3.23 3.9-4.86l-1.24 1.64 1.55-2c1-1.25 2.71-3.58 1.73-2.3q8.72-11.65 16.6-23.91a413 413 0 0 0 31.24-58.65A412.49 412.49 0 0 0 888 442a419.12 419.12 0 0 0 0-102.09 412.39 412.39 0 0 0-26.29-96.37 412.61 412.61 0 0 0-26.92-51.73q-8-13-17-25.42-2.14-3-4.34-5.88c-0.32-0.44-0.66-0.87-1-1.31-3.13-4-6.3-7.88-9.57-11.72a411.9 411.9 0 0 0-42.71-43.41q-5.48-4.8-11.13-9.41-2.43-2-4.87-3.91l1.63 1.25-2-1.55c-1.24-1-3.57-2.7-2.3-1.72q-11.65-8.72-23.9-16.6a413.08 413.08 0 0 0-58.66-31.24 412.28 412.28 0 0 0-96.19-26.22 420 420 0 0 0-102.13 0 412.94 412.94 0 0 0-96.68 26.43 412.57 412.57 0 0 0-76.35 43.43c-2.72 2-5.4 4-8.08 6l-0.48 0.39q-2.42 1.9-4.79 3.85-8.93 7.28-17.42 15a419.54 419.54 0 0 0-32.18 32.88 24.54 24.54 0 0 1-2 2h172.43c15.88 0 31.09 14 30.35 30.35s-13.33 30.36-30.35 30.36H166.91c-15.23 0-32-14-30.36-30.36l6.84-70.2q5.46-55.9 10.9-111.83l2.5-25.58c0.8-8.24 2.85-15.43 8.89-21.47 5.27-5.26 13.9-9.23 21.47-8.89 15.12 0.68 32 13.43 30.35 30.36l-6.84 70.2q-1.72 17.76-3.46 35.52a441.21 441.21 0 0 1 194.12-108.39c80.95-20.81 168.56-18.41 247.94 8 71.79 23.91 137.5 66.07 188.25 122.32 51 56.48 87.7 125.89 103.88 200.34 16.81 77.33 13.3 159.36-11.96 234.46zM466.71 606.3v-215.35c0-16.48 13.91-30.26 30.36-30.36l72.83-0.41 116.69-0.67 26.71-0.15c15.89-0.09 31.09 14 30.36 30.35-0.74 16.53-13.34 30.26-30.36 30.36l-72.83 0.42-116.69 0.67-26.71 0.15 30.35-30.36V606.3c0 15.88-14 31.09-30.35 30.36s-30.36-13.34-30.36-30.36z"  horiz-adv-x="1024" />

    
    <glyph glyph-name="xiazai" unicode="&#58997;" d="M919.724075 180.926932c-1.140986 27.353998-19.024286 42.460044-42.618657 41.899272-23.378453-0.554632-38.799678-15.928784-40.99467-43.88858-1.610684-20.539802-0.231267-41.299615-0.676405-61.951981-1.115404-51.828412-12.339026-63.804165-64.151066-64.826448-49.90869-0.985444-99.853196-0.323365-149.781328-0.327458-115.351168-0.00921-230.704382-0.094144-346.05555 0.065492-79.440283 0.109494-86.325088 6.972808-86.704734 84.203774-0.068562 13.770632 0.62524 27.626197-0.639566 41.293475-2.692319 29.087479-16.327874 44.221154-39.414685 45.526893-24.920576 1.411139-43.084261-15.533788-44.989657-45.49517-1.74269-27.442002-0.763386-55.07127-0.582261-82.615603 0.590448-89.169879 40.095183-129.182174 129.293715-129.691781 92.966345-0.532119 185.938829-0.118704 278.909268-0.140193 27.54638-0.022513 55.094806-0.031722 82.640162-0.021489 70.589708 0.024559 141.195789-0.956791 211.758891 0.39295 62.212924 1.189082 107.706047 37.176714 112.958678 91.756797C922.616962 98.059596 921.441183 139.707135 919.724075 180.926932zM197.8583 455.134107c88.756463-88.806605 177.525206-177.601954 266.292925-266.398326 3.647063-3.64911 7.361665-7.230682 10.984169-10.902304 14.284331-14.481829 30.947849-22.644743 51.134611-14.996552 6.584975 2.494821 11.479449 6.255471 15.664771 10.522658 2.762927 1.912559 5.470595 4.0175 7.9296 6.407943 45.635363 44.375673 240.102427 239.467977 285.027615 284.574291 4.825912 4.845355 9.463536 10.05296 13.269211 15.71082 12.214183 18.164708 10.541077 35.95898-3.945869 51.853995-14.818497 16.257266-33.480532 16.939811-51.874461 7.894807-8.930393-4.391007-16.285918-12.4608-23.556509-19.673062-30.239721-29.991058-139.611711-139.26481-212.845643-212.610282 0.037862 114.560152 0.050142 229.119281 0.027629 343.680457-0.00614 34.398438 1.090844 68.859297-0.615007 103.175871-1.587148 31.878035-17.058514 48.140417-41.968857 48.957015-25.551956 0.838088-41.055045-14.728446-44.538379-46.158273-1.320065-11.908214-0.623193-24.053835-0.629333-36.09201-0.040932-75.676563-0.021489-151.355173-0.021489-227.033783-0.001023-56.590879 0-113.181759 0-169.773661-3.928472-1.738597-7.855922-3.476171-11.784394-5.214768-22.74912 22.663162-45.525869 45.303812-68.245314 67.99665-47.452755 47.405683-94.28948 95.445816-142.575206 141.985782-21.800515 21.013593-47.071062 21.358447-64.429405 4.840238-18.709107-17.803481-18.050098-39.000246 2.325975-63.951521C187.818643 464.625272 192.996572 459.999928 197.8583 455.134107z"  horiz-adv-x="1024" />

    
    <glyph glyph-name="export" unicode="&#59031;" d="M278.7 492.8l-35.4 35.4 268.7 268.7 268.7-268.7-35.4-35.4-208.3 208.4v-574.1h-50v574.1l-208.3-208.4zM832.1 651.1v-50h74.9v-580h-790v580h74.9v50h-124.9v-680h890v680h-124.9z"  horiz-adv-x="1024" />

    
    <glyph glyph-name="xiazai1" unicode="&#58915;" d="M819.203 490.351c0 169.66-137.541 307.19-307.201 307.19s-307.195-137.53-307.195-307.19c-113.105 0-204.8-91.69-204.8-204.801s91.695-204.801 204.8-204.801h102.4V162.67h-102.4c-67.755 0-122.88 55.12-122.88 122.88 0 67.761 55.125 122.881 122.88 122.881h81.92v81.92c0 124.22 101.055 225.28 225.275 225.28 124.221 0 225.281-101.06 225.281-225.28v-81.92h81.92c67.76 0 122.871-55.12 122.871-122.881 0-67.76-55.111-122.88-122.871-122.88h-102.4v-81.921h102.4c113.09 0 204.791 91.69 204.791 204.801s-91.701 204.801-204.791 204.801zM511.393-29.541l221.281 238.02-64.441 60-110.79-119.22V485.78h-92.16v-336.47L354.488 268.479l-64.431-60z"  horiz-adv-x="1024" />

    
    <glyph glyph-name="download" unicode="&#58888;" d="M512 832a448 448 0 1 0-448-448 448 448 0 0 0 448 448m0 64a512 512 0 1 1 512-512 512 512 0 0 1-512 512zM739.84 329.6a31.36 31.36 0 0 1-45.44 44.16l-134.4-139.52V576a32 32 0 0 1-64 0v-346.24L348.16 373.12a32 32 0 0 1-44.8-45.44l223.36-219.52 15.36 16 28.8 28.8 167.68 173.44z"  horiz-adv-x="1024" />

    
    <glyph glyph-name="xiazai-" unicode="&#58891;" d="M867.3 553.2L539.5 225.29999999999995V816.6c0 15.2-12.3 27.5-27.5 27.5s-27.5-12.3-27.5-27.5v-591.3L156.7 553.2c-5.4 5.4-12.4 8-19.4 8-7 0-14.1-2.7-19.4-8-10.7-10.7-10.7-28.1 0-38.8l374.7-374.7c10.7-10.7 28.1-10.7 38.8 0l374.7 374.7c10.7 10.7 10.7 28.1 0 38.8-10.7 10.7-28.1 10.7-38.8 0z m129.2-574.4h-969C12.3-21.200000000000045 0-33.5 0-48.60000000000002c0-15.2 12.3-27.5 27.5-27.5h969.1c15.2 0 27.5 12.3 27.5 27.5-0.1 15.1-12.4 27.4-27.6 27.4z"  horiz-adv-x="1024" />

    
    <glyph glyph-name="export1" unicode="&#58999;" d="M896.4374528 479.830016c0 26.673152-21.6236032 48.2967552-48.2967552 48.2967552H630.8069376c-26.673152 0-48.2967552-21.6236032-48.2967552-48.2967552v-83.04831147H384.69522773l-2.71428266 5.36849067c-41.336832 87.44686933-35.95195733 204.128256 150.601728 199.94487467v-108.91537067l172.19037866 164.757504L532.58267307 822.7110912v-106.57245867c-228.64418133 5.70709333-263.651328-183.517184-157.433856-314.01028266l4.6891008-5.34664534h-88.46595414c-26.673152 0-48.2967552-21.6236032-48.2967552-48.2967552v-66.78882986h-98.43616426c-26.673152 0-40.4258816-21.6236032-30.71781547-48.2967552l79.10304427-217.33485227c9.70806613-26.673152 39.20145067-48.2967552 65.87460266-48.2967552h603.70670934c23.75898453 0 37.2506624 17.16169387 33.05745066 39.76178347 0.4980736 2.77108053 0.77441707 5.619712 0.77441707 8.53497173v463.765504z m-60.37067093-306.4528896l-21.8464256 60.02223787c-9.70806613 26.673152-39.20145067 48.2967552-65.87460267 48.2967552H303.44697173v30.56708266c0 13.336576 10.81125547 24.14783147 24.14783147 24.14783147h315.28605013v107.1972352c0 13.336576 10.81125547 24.14783147 24.14783147 24.14783147h144.88917333c13.336576 0 24.14783147-10.81125547 24.14783147-24.14783147v-270.2311424z"  horiz-adv-x="1024" />

    
    <glyph glyph-name="daochu" unicode="&#58973;" d="M880.213333 25.6h-716.8V742.4h318.293334V810.666667H146.346667c-28.16 0-51.2-23.04-51.2-51.2v-750.933334c0-28.16 23.04-51.2 51.2-51.2h750.933333c28.16 0 51.2 23.04 51.2 51.2v346.88h-68.266667V25.6zM914.346667 132.266667c-18.773333 0-34.133333 15.36-34.133334 34.133333v200.533333c0 18.773333 15.36 34.133333 34.133334 34.133334s34.133333-15.36 34.133333-34.133334v-200.533333c0-18.773333-14.933333-34.133333-34.133333-34.133333zM504.746667 742.4h-89.6c-18.773333 0-34.133333 15.36-34.133334 34.133333s15.36 34.133333 34.133334 34.133334h89.6c18.773333 0 34.133333-15.36 34.133333-34.133334s-14.933333-34.133333-34.133333-34.133333zM693.333333 810.666667h220.16c19.2 0 34.986667-15.786667 34.986667-34.986667 0-19.2-15.786667-34.986667-34.986667-34.986667h-220.16c-19.2 0-34.986667 15.786667-34.986666 34.986667 0 19.2 15.36 34.986667 34.986666 34.986667zM948.48 775.68v-220.16c0-19.2-15.786667-34.986667-34.986667-34.986667-19.2 0-34.986667 15.786667-34.986666 34.986667V775.68c0 19.2 15.786667 34.986667 34.986666 34.986667 19.2 0 34.986667-15.786667 34.986667-34.986667zM938.24 800.426667l0.426667-0.426667c13.226667-13.226667 13.226667-34.56 0-47.786667L491.52 305.066667c-13.226667-13.226667-34.56-13.226667-47.786667 0l-0.426666 0.426666c-13.226667 13.226667-13.226667 34.56 0 47.786667L890.453333 800.426667c13.226667 13.226667 34.56 13.226667 47.786667 0z"  horiz-adv-x="1024" />

    
    <glyph glyph-name="xiazai2" unicode="&#59053;" d="M46.535111 315.050667c12.344889 0 24.177778-4.892444 32.910222-13.568 8.732444-8.647111 13.653333-20.423111 13.653334-32.711111v-201.159112c0-25.543111 20.821333-46.250667 46.535111-46.250666h744.732444c25.713778 0 46.535111 20.707556 46.535111 46.250666V268.8c0 16.497778 8.874667 31.772444 23.267556 40.049778 14.421333 8.248889 32.142222 8.248889 46.563555 0 14.392889-8.248889 23.267556-23.523556 23.267556-40.049778v-201.187556C1024-9.016889 961.479111-71.111111 884.337778-71.111111H139.662222C62.492444-71.111111 0-9.016889 0 67.612444V268.8c0 25.543111 20.849778 46.250667 46.535111 46.250667zM327.111111 793.144889A46.08 46.08 0 0 0 373.276444 839.111111h277.333334A46.08 46.08 0 0 0 696.888889 793.144889v-266.325333h138.666667c19.2 0 36.408889-11.776 43.235555-29.639112a45.795556 45.795556 0 0 0-12.515555-50.716444L542.634667 161.137778a46.421333 46.421333 0 0 0-61.326223 0L157.781333 446.464a45.795556 45.795556 0 0 0-12.544 50.688 46.222222 46.222222 0 0 0 43.178667 29.667556h138.666667V793.144889z m92.444445-45.966222v-266.325334a46.08 46.08 0 0 0-46.250667-45.966222h-63.089778l201.756445-177.92 201.756444 177.92h-63.089778a46.08 46.08 0 0 0-46.222222 45.966222V747.178667h-184.888889z"  horiz-adv-x="1024" />

    
    <glyph glyph-name="xiazai3" unicode="&#58909;" d="M512 524.8c-15.36 0-25.6-10.24-25.6-25.6v-414.72L353.28 204.8c-10.24 10.24-25.6 7.68-35.84-2.56-10.24-10.24-7.68-25.6 2.56-35.84l176.64-161.28c5.12-5.12 10.24-7.68 17.92-7.68 2.56 0 7.68 0 10.24 2.56 10.24 5.12 15.36 12.8 15.36 23.04V499.2c-2.56 12.8-12.8 25.6-28.16 25.6zM670.72 204.8l-110.08-99.84c-10.24-10.24-10.24-25.6-2.56-35.84 5.12-5.12 12.8-7.68 17.92-7.68 5.12 0 12.8 2.56 17.92 7.68l110.08 99.84c10.24 10.24 10.24 25.6 2.56 35.84-7.68 10.24-25.6 10.24-35.84 0zM773.12 527.36c-2.56 140.8-120.32 256-261.12 256S253.44 668.16 250.88 527.36C110.08 517.12 0 399.36 0 256c0-148.48 120.32-271.36 271.36-271.36 15.36 0 25.6 10.24 25.6 25.6s-10.24 25.6-25.6 25.6C148.48 35.84 51.2 135.68 51.2 256c0 120.32 97.28 220.16 220.16 220.16h2.56c7.68 0 15.36 2.56 20.48 7.68 5.12 5.12 7.68 12.8 7.68 20.48v17.92c0 115.2 94.72 209.92 209.92 209.92s209.92-94.72 209.92-209.92v-17.92c0-7.68 2.56-15.36 7.68-20.48 5.12-5.12 12.8-7.68 20.48-7.68h5.12c120.32 0 220.16-99.84 220.16-220.16s-99.84-220.16-220.16-220.16c-15.36 0-25.6-10.24-25.6-25.6s10.24-25.6 25.6-25.6C903.68-15.36 1024 107.52 1024 256c0 143.36-110.08 261.12-250.88 271.36z"  horiz-adv-x="1024" />

    
    <glyph glyph-name="daochu1" unicode="&#58900;" d="M526 116H380.8c-19.2 0-34.8 15.6-34.8 34.8V628.2c0 19.2 15.6 34.8 34.8 34.8h477.4c19.2 0 34.8-15.6 34.8-34.8V483c0-18.8 15.2-34 34-34s34 15.2 34 34V661.9c0 38.2-31 69.1-69.1 69.1H347.1c-38.2 0-69.1-31-69.1-69.1v-544.7c0-38.2 31-69.1 69.1-69.1H526c18.8 0 34 15.2 34 34 0 18.7-15.2 33.9-34 33.9zM950.9 241.2l-0.1 0.1L817.1 375c-13.3 13.3-34.8 13.3-48.1 0-13.3-13.3-13.3-34.8 0-48.1l75.9-75.9H632c-18.8 0-34-15.2-34-34s15.2-34 34-34h212.7L769 107.3c-13.3-13.3-13.3-34.8 0-48.1 13.3-13.3 34.8-13.3 48.1 0l131.6 131.6c7.5 6.2 12.3 15.6 12.3 26.1 0 9.6-3.9 18.1-10.1 24.3z"  horiz-adv-x="1280" />

    
    <glyph glyph-name="xiazai4" unicode="&#58933;" d="M1024-73.955556c0-36.977778-25.6-54.044444-54.044444-54.044444H54.044444C19.911111-128 0-116.622222 0-71.111111V526.222222c0 25.6 14.222222 56.888889 56.888889 56.888889h113.777778s28.444444-2.844444 28.444444-28.444444-28.444444-28.444444-28.444444-28.444445H56.888889v-597.333333h910.222222V526.222222h-85.333333s-28.444444 0-28.444445 28.444445 28.444444 28.444444 28.444445 28.444444h85.333333c39.822222 0 56.888889-17.066667 56.888889-56.888889v-600.177778z m-500.622222 247.466667c-8.533333-8.533333-11.377778-11.377778-14.222222-8.533333-2.844444 0-5.688889 5.688889-14.222223 14.222222L284.444444 412.444444c-14.222222 17.066667-19.911111 28.444444-2.844444 42.666667 8.533333 8.533333 17.066667 11.377778 28.444444 11.377778s25.6-17.066667 34.133334-25.6l142.222222-162.133333V867.555556c0 22.755556 5.688889 28.444444 28.444444 28.444444s28.444444-5.688889 28.444445-28.444444v-585.955556l147.911111 173.511111c8.533333 8.533333 34.133333 25.6 56.888889 0 5.688889-8.533333 5.688889-28.444444-11.377778-45.511111l-213.333333-236.088889z"  horiz-adv-x="1024" />

    
    <glyph glyph-name="daochu2" unicode="&#58935;" d="M783.36 491.52a32 32 0 0 0-22.4 9.6L512 750.08 263.04 501.12a32 32 0 0 0-45.44 0 32.64 32.64 0 0 0 0 45.44l272 271.36a30.72 30.72 0 0 0 44.8 0l272-271.36a32.64 32.64 0 0 0 0-45.44 32.64 32.64 0 0 0-23.04-9.6zM512 72.32a32 32 0 0 0-32 32V776.32a32 32 0 0 0 64 0v-672a32 32 0 0 0-32-32zM967.04-81.28H56.96a32 32 0 0 0-32 32v313.6a32.64 32.64 0 0 0 32 32 32 32 0 0 0 32-32v-281.6h846.08v281.6a32 32 0 0 0 32 32 32.64 32.64 0 0 0 32-32v-313.6a32 32 0 0 0-32-32z"  horiz-adv-x="1024" />

    
    <glyph glyph-name="jiaolian1" unicode="&#59037;" d="M956.671995-110.527988 947.519995-127.999988l-23.552 0L92.672005-127.999988 65.856005-127.999988l0.512 26.624c1.024 50.239999 6.272 118.335999 23.872 185.087998 18.24 68.735999 49.599999 136.191998 103.103999 182.463998L201.024004 272.640007l9.92-0.064 116.927999 1.152L327.872002 219.520008l-107.007999 0.896c-40.064-38.208-64.703999-93.183999-79.679999-149.823998-13.568-51.007999-19.2-103.167999-21.376-146.367998l784.447991 0.128c1.344 49.343999-13.056 107.647999-30.784 162.303998-17.856 55.167999-43.327999 102.143999-73.983999 134.591998l-122.239999 0L677.247998 273.728007l139.711998 0 10.752-3.52c40.896-38.208 74.175999-100.479999 95.871999-167.551998C946.303995 32.44801 963.263995-50.047989 956.671995-110.527988L956.671995-110.527988zM520-40.639989l-69.887999 52.351999L495.36 193.280008l-17.088 28.032 1.344 28.672c32.64 1.792 42.24 1.792 74.879999 0l1.344-28.672L538.688 193.280008l51.199999-181.503998L520-40.639989 520-40.639989zM722.239998 485.760005c-17.92-61.823999-42.368-108.095999-75.135999-142.399998C611.839999 306.368007 567.551999 284.224007 512.064 272.576007l-4.48-0.896-4.48 0.704C452.992001 280.768007 408.768001 302.016007 371.968002 339.392007 338.176002 373.632006 311.232002 421.248006 292.416003 484.672005 276.672003 493.184005 264.832003 507.392005 256.832003 526.400004 248.064003 547.328004 243.968003 574.656004 244.480003 607.040003l0.192 12.48 10.496 7.04c3.52 2.432 7.104 4.544 10.624 6.464C249.856003 730.304002 254.016003 813.120001 313.088002 868.288 360.064002 902.4 442.560001 879.104 518.144 890.368c215.615997 32.256 214.143997-76.671999 235.647997-261.311997 1.28-0.768 2.496-1.536 3.776-2.432l10.496-7.04 0.192-12.48c0.512-31.744-3.328-58.559999-11.776-79.359999C748.799997 508.800005 737.407997 494.528005 722.239998 485.760005L722.239998 485.760005zM696.383998 582.912004 693.119998 593.920004l-7.04-0.448-4.032 21.056c-3.136 16.448-7.872 101.567999-14.144 115.519999C649.279998 722.240002 628.351999 736.640002 609.407999 747.456002l-9.6-29.76L584.447999 719.680002l2.048 18.112L570.175999 711.936002 555.711999 714.816002l14.272 38.4C493.696 700.544002 362.240002 703.232002 344.896002 726.784002 342.208002 723.456002 341.696002 718.720002 340.224002 714.560002 336.640002 700.352002 332.608002 611.968003 329.088002 597.888003L328.128002 592.704004 327.744002 592.768004C326.976002 589.888004 326.272002 587.392004 325.504002 585.216004 318.976002 589.504004 305.728002 586.112004 293.824003 584.320004 294.976003 568.640004 297.600003 555.392004 302.016002 545.088004c4.352-10.496 10.368-17.28 17.92-19.584l12.928-3.968 3.52-12.928C353.024002 447.808005 376.960002 403.584006 406.976001 373.120006c27.968-28.352 61.567999-44.991999 99.711999-52.095999 43.391999 9.792 77.823999 27.328 105.023999 55.743999 28.8 30.144 50.239999 73.087999 66.303999 132.415998l3.328 12.352 12.224 4.288c7.424 2.56 13.312 9.472 17.6 19.968 4.16 10.24 6.784 23.168 7.872 38.464C711.871998 584.128004 704.639998 583.936004 696.383998 582.912004L696.383998 582.912004z"  horiz-adv-x="1024" />

    
    <glyph glyph-name="jilu" unicode="&#58934;" d="M512 831.5C264.9 831.5 64.5 631.1 64.5 384S264.9-63.5 512-63.5 959.5 136.9 959.5 384 759.1 831.5 512 831.5z m0-831.1c-211.5 0-383.6 172.1-383.6 383.6S300.5 767.6 512 767.6 895.6 595.5 895.6 384 723.5 0.4 512 0.4zM512 639.7h-63.9V320.1h319.6V384H512z"  horiz-adv-x="1024" />

    
    <glyph glyph-name="xuexiao" unicode="&#59253;" d="M886.8 518.6c-5.3 8.9-18 16.1-28.3 16.1H167.7c-10.3 0-23-7.2-28.3-16.1l-54-90.7c-5.3-8.9-1.2-16.1 9.1-16.1h837.1c10.3 0 14.4 7.2 9.1 16.1l-53.9 90.7zM900.9 494.8H576.1v-28.6H918l-17.1 28.6z m-792.7-28.6h338.1v28.6h-321l-17.1-28.6zM608.5 416.4l-97.3 156.2-97.4-156.2H87.1v-378h848.1v378zM638.9 396.1c-7.1 0-15.9 4.9-19.7 10.9l-5.9 9.4h-4.9L517.7 562c-4.3 2-8.9 2-13.3 0l-90.7-145.6H409l-5.9-9.4c-3.8-6-12.6-10.9-19.7-10.9H87.1v-50.2h312.2c7.1 0 15.8 5 19.3 11.1l76.2 116.7c8.9 15.2 23.6 15.2 32.5 0L603.5 357c3.6-6.1 12.2-11.1 19.3-11.1H935v50.2H638.9zM852.8 336.8h82.4v-39.6h-82.4zM605.8 254.8h82.4v-39.6h-82.4zM754.9 114.1h82.4v-39.6h-82.4zM327.4 103.5h82.4v-39.6h-82.4zM87.1 298.8h82.4v-39.6H87.1zM286.2 380.8h82.4v-39.6h-82.4zM440.4 233h141.5v-194.6H440.4zM467.4 188H496v-53.9h-28.6zM526.3 188h28.6v-53.9h-28.6zM292.5 265.8h83.2v-114.4h-83.2zM292.5 265.8h83.2v-25.2h-83.2zM292.5 222.9h83.2v-28.6h-83.2zM306.8 165.7h54.6v85.8h-54.6v-85.8z m68.9-28.6h-83.2c-7.9 0-14.3 6.4-14.3 14.3V265.8c0 7.9 6.4 14.3 14.3 14.3h83.2c7.9 0 14.3-6.4 14.3-14.3v-114.4c0-7.9-6.4-14.3-14.3-14.3zM131.1 265.8h83.2v-114.4h-83.2zM131.1 265.8h83.2v-25.2h-83.2zM131.1 222.9h83.2v-28.6h-83.2zM145.4 165.7H200v85.8h-54.6v-85.8z m68.9-28.6h-83.2c-7.9 0-14.3 6.4-14.3 14.3V265.8c0 7.9 6.4 14.3 14.3 14.3h83.2c7.9 0 14.3-6.4 14.3-14.3v-114.4c0-7.9-6.4-14.3-14.3-14.3zM646.7 265.8h83.2v-114.4h-83.2zM646.7 265.8h83.2v-25.2h-83.2zM646.7 222.9h83.2v-28.6h-83.2zM661 165.7h54.6v85.8H661v-85.8z m68.8-28.6h-83.2c-7.9 0-14.3 6.4-14.3 14.3V265.8c0 7.9 6.4 14.3 14.3 14.3h83.2c7.9 0 14.3-6.4 14.3-14.3v-114.4c0-7.9-6.4-14.3-14.3-14.3zM808 265.8h83.2v-114.4H808zM808 265.8h83.2v-25.2H808zM808 222.9h83.2v-28.6H808zM822.3 165.7h54.6v85.8h-54.6v-85.8z m68.9-28.6H808c-7.9 0-14.3 6.4-14.3 14.3V265.8c0 7.9 6.4 14.3 14.3 14.3h83.2c7.9 0 14.3-6.4 14.3-14.3v-114.4c0-7.9-6.4-14.3-14.3-14.3zM511.2 743.5h165.1v-94.6H511.2zM511.2 743.5h43.2v-94.6h-43.2zM511.2 558.3c-7.9 0-14.3 6.4-14.3 14.3v184c0 7.9 6.4 14.3 14.3 14.3s14.3-6.4 14.3-14.3v-184.1c0-7.8-6.4-14.2-14.3-14.2zM528.2 587.2c-9.4 15-24.7 15-34.1 0l-91-145.2c-3.8-6-12.6-10.9-19.7-10.9H79.3c-7.1 0-12.9-5.8-12.9-12.9v-24.5c0-7.1 5.8-12.9 12.9-12.9h320.1c7.1 0 15.8 5 19.3 11.1l76.2 116.7c8.9 15.2 23.6 15.2 32.5 0l76.2-116.7c3.6-6.1 12.2-11.1 19.3-11.1h320c7.1 0 12.9 5.8 12.9 12.9v24.5c0 7.1-5.8 12.9-12.9 12.9h-304c-7.1 0-15.9 4.9-19.7 10.9l-91 145.2zM511.2 336.8m-64.9 0a64.9 64.9 0 1 1 129.8 0 64.9 64.9 0 1 1-129.8 0ZM536 351.1h-10.6v10.6c0 7.9-6.4 14.3-14.3 14.3s-14.3-6.4-14.3-14.3v-24.9c0-7.9 6.4-14.3 14.3-14.3H536c7.9 0 14.3 6.4 14.3 14.3s-6.4 14.3-14.3 14.3zM959.7 3.1c0-4.2-3.5-7.7-7.7-7.7H74.2c-4.2 0-7.7 3.5-7.7 7.7v27.6c0 4.2 3.5 7.7 7.7 7.7H952c4.2 0 7.7-3.5 7.7-7.7v-27.6zM397.8 38.4h230.6v-43H397.8zM914.8 38.4c0 36-29.2 65.2-65.2 65.2s-65.2-29.2-65.2-65.2h130.4zM279.4 38.4c0 36-29.2 65.2-65.2 65.2S149 74.4 149 38.4h130.4z"  horiz-adv-x="1024" />

    
    <glyph glyph-name="ziliao" unicode="&#59114;" d="M886.003 42.611c-19.66 0-806.73-0.612-821.669-0.612V693.321c0 17.712 15.006 32.071 33.516 32.071h784.818l3.335-682.781zM205.947 620.711s574.745-0.908 626.261-0.908c0 0 0.583-40.118 0.583-65.828L551.81 502.483c-28.864-4.017-78.632-17.096-128.344-17.096H205.947V620.711zM960.077 75.881c0-18.484-15.111-33.601-33.595-33.601H151.114c0 3.083 0.579 420.338 0.579 420.338 0 18.48 15.115 33.516 33.601 33.516h267.708c31.872 0 53.149 19.713 73.85 38.853 9.854 9.118 30.312 28.095 39.345 29.736h393.882V75.88h-0.002zM803.137 406.1H543.972c-15.111 0-27.355-12.239-27.355-27.355 0-15.195 12.243-27.435 27.355-27.435h259.166c15.036 0 27.274 12.239 27.274 27.435 0.001 15.117-12.239 27.355-27.275 27.355z m0-120.917H543.972c-15.111 0-27.355-12.239-27.355-27.355 0-15.111 12.243-27.351 27.355-27.351h259.166c15.036 0 27.274 12.239 27.274 27.351 0.001 15.117-12.239 27.355-27.275 27.355z"  horiz-adv-x="1024" />

    
    <glyph glyph-name="xuexiao1" unicode="&#58969;" d="M509.866667 588.9024H289.352533a25.838933 25.838933 0 0 1-22.382933-12.928 25.864533 25.864533 0 0 1 0-25.856 25.838933 25.838933 0 0 1 22.382933-12.923733H509.866667a25.838933 25.838933 0 0 1 22.382933 12.928 25.864533 25.864533 0 0 1 0 25.856 25.838933 25.838933 0 0 1-22.382933 12.923733z m0-155.118933H289.352533a25.838933 25.838933 0 0 1-22.382933-12.928 25.864533 25.864533 0 0 1 0-25.856 25.838933 25.838933 0 0 1 22.382933-12.923734H509.866667a25.834667 25.834667 0 0 1 23.057066 12.680534 25.864533 25.864533 0 0 1 0 26.325333 25.834667 25.834667 0 0 1-23.057066 12.672v0.029867z m358.421333 51.703466c-0.955733 29.482667-25.595733 52.6208-55.0656 51.707734h-165.6064V692.3136c-0.951467 29.482667-25.595733 52.6208-55.061333 51.707733H206.741333a53.367467 53.367467 0 0 1-38.340266-14.382933 53.422933 53.422933 0 0 1-16.878934-37.3248v-672.1792h-27.5456a25.838933 25.838933 0 0 1-22.378666-12.928 25.864533 25.864533 0 0 1 0-25.856 25.838933 25.838933 0 0 1 22.378666-12.923733h771.780267a25.838933 25.838933 0 0 1 22.378667 12.928 25.864533 25.864533 0 0 1 0 25.856 25.838933 25.838933 0 0 1-22.378667 12.923733h-27.52l0.0512 465.352533zM592.631467 20.138667H206.741333V670.0032a23.261867 23.261867 0 0 0 23.825067 22.3616h338.1632a23.261867 23.261867 0 0 0 23.825067-22.3616v-650.001067l0.0768 0.128z m220.437333 0h-165.376V462.920533a23.261867 23.261867 0 0 0 23.825067 22.357334h117.700266a23.261867 23.261867 0 0 0 23.825067-22.357334v-443.0464l0.0256 0.256z m-303.202133 258.474666H289.352533a25.838933 25.838933 0 0 1-22.382933-12.923733 25.864533 25.864533 0 0 1 0-25.856 25.838933 25.838933 0 0 1 22.382933-12.923733H509.866667a25.838933 25.838933 0 0 1 22.382933 12.928 25.864533 25.864533 0 0 1 0 25.856 25.838933 25.838933 0 0 1-22.382933 12.923733z"  horiz-adv-x="1024" />

    
    <glyph glyph-name="gerenxinxi1" unicode="&#58923;" d="M870.4 742.4H736v56C736 817 721 832 702.4 832s-33.6-15-33.6-33.6v-56H355.2v56c0 18.6-15 33.6-33.6 33.6S288 817 288 798.4v-56H153.6c-49.5 0-89.6-40.1-89.6-89.6v-627.2c0-49.5 40.1-89.6 89.6-89.6h716.8c49.5 0 89.6 40.1 89.6 89.6V652.8c0 49.5-40.1 89.6-89.6 89.6zM892.8 48c0-24.7-20.1-44.8-44.8-44.8H176c-24.7 0-44.8 20.1-44.8 44.8V630.4c0 24.7 20.1 44.8 44.8 44.8h112v-56c0-18.6 15-33.6 33.6-33.6s33.6 15 33.6 33.6v56h313.6v-56c0-18.6 15-33.6 33.6-33.6s33.6 15 33.6 33.6v56h112c24.7 0 44.8-20.1 44.8-44.8V48zM456.9 253.3c33.3 24.5 55.1 63.8 55.1 108.3 0 74.2-60.2 134.4-134.4 134.4s-134.4-60.2-134.4-134.4c0-44.5 21.7-83.8 55.1-108.3-52.7-26.1-90.6-77.4-98.2-138.1h67.8c10.4 51.1 55.6 89.6 109.7 89.6s99.4-38.5 109.7-89.6h67.8c-7.5 60.7-45.4 112-98.2 138.1z m-79.3 41.1c-37.1 0-67.2 30.1-67.2 67.2s30.1 67.2 67.2 67.2 67.2-30.1 67.2-67.2-30.1-67.2-67.2-67.2z m369.6-44.8H680c-18.6 0-33.6-15-33.6-33.6s15-33.6 33.6-33.6h67.2c18.6 0 33.6 15 33.6 33.6s-15 33.6-33.6 33.6zM792 428.8H635.2c-18.6 0-33.6-15-33.6-33.6s15-33.6 33.6-33.6H792c18.6 0 33.6 15 33.6 33.6s-15 33.6-33.6 33.6z"  horiz-adv-x="1024" />

    
    <glyph glyph-name="xuexiao2" unicode="&#58924;" d="M488.6 244.5c4.3-2 9.3-2 13.7 0l234.1 111v-159c0-6.1-3.4-11.7-8.9-14.5L502.6 68.6c-4.5-2.3-9.8-2.3-14.4 0L203.5 181.9c-5.5 2.7-8.9 8.3-8.9 14.5V355.5l294-111zM836 537v-440.1c0-16.5-13.4-29.9-29.9-29.9s-29.9 13.4-29.9 29.9V524.6l-39.7-9.3v-110.4l-241-114.2-300.9 114.2V519l-78 25.2c-6.2 2.4-10.3 8.4-10.3 15s4.1 12.6 10.3 15l372.9 149c3.8 1.5 8 1.5 11.8 0l373-149c6.1-2.5 10.2-8.4 10.2-15s-4-12.6-10.2-15L836 537z"  horiz-adv-x="1024" />

    
    <glyph glyph-name="jiaoshiguanli" unicode="&#58918;" d="M619.7 11.200000000000045c-21.4 29-46.9 54.5-76 75.8-26.4 19.3-55 34.7-85.1 45.9 19.8 11.3 38.2 25.2 54.7 41.8 48.4 48.4 75 112.7 75 181.1s-26.6 132.7-75 181.1-112.7 75-181.1 75-132.7-26.6-181.1-75-75-112.7-75-181.1 26.6-132.7 75-181.1c17.5-17.5 37.1-32.1 58.2-43.7-28.3-11-55.1-25.7-80.1-43.9-29.1-21.3-54.7-46.8-76-75.8-21.6-29.4-38.4-61.8-50-96.2-5.6-16.8 3.4-34.9 20.2-40.5 3.4-1.1 6.8-1.7 10.2-1.7 13.4 0 25.8 8.5 30.3 21.8 39.3 117.2 148.9 196 272.6 196 123.7 0 233.3-78.8 272.6-196 5.6-16.8 23.8-25.8 40.5-20.2 16.8 5.6 25.8 23.8 20.2 40.5-11.7 34.4-28.5 66.8-50.1 96.2zM140.1 355.70000000000005c0 105.9 86.2 192.1 192.1 192.1s192.1-86.2 192.1-192.1-86.2-192.1-192.1-192.1-192.1 86.2-192.1 192.1zM928.1 895H415c-52.9 0-96-43.1-96-96v-123.5c0-17.7 14.3-32 32-32s32 14.3 32 32V799c0 17.6 14.4 32 32 32h513.1c17.6 0 32-14.4 32-32v-348.9c0-17.6-14.4-32-32-32h-256c-17.7 0-32-14.3-32-32s14.3-32 32-32h256c52.9 0 96 43.1 96 96V799c0 52.9-43 96-96 96z"  horiz-adv-x="1024" />

    
    <glyph glyph-name="jiaoshi" unicode="&#59170;" d="M272.128 357.248l207.36-409.472H204.736c-31.488 1.152-57.728 12.224-78.72 33.28s-32.064 47.232-33.28 78.72v185.472c1.152 31.488 12.224 57.728 33.28 78.72s47.232 32.064 78.72 33.28h67.392z m88.768 414.784c38.784 39.104 87.616 59.52 146.56 61.248 58.944-1.728 107.776-22.144 146.56-61.248 38.784-39.104 59.072-87.808 60.8-146.112-0.576-37.952-9.92-72.64-28.032-104.128s-43.456-56.576-76.096-75.264c-32.704-18.688-67.072-28.032-103.232-28.032-36.16 0-70.592 9.344-103.232 28.032-32.704 18.688-58.048 43.776-76.096 75.264-18.112 31.488-27.456 66.176-28.032 104.128 1.728 58.304 22.016 107.008 60.8 146.112z m241.984-532.928l-95.36-201.28-95.36 201.28 95.36 83.968 95.36-83.968z m286.976 84.928c21.568-20.992 34.112-47.232 37.632-78.72v-185.472c-0.576-31.488-11.52-57.728-32.832-78.72-21.312-20.992-47.68-32.064-79.168-33.28H540.736l202.112 409.472h67.392c31.488-1.216 58.048-12.288 79.616-33.28z"  horiz-adv-x="1024" />

    
    <glyph glyph-name="jiaoshiguanli1" unicode="&#58926;" d="M409.27593081 131.52567538999995l44.82073917-47.91962373V365.45758828h-19.22666133z m45.23920137 233.93191289v-281.85153662l44.82073916 47.91962373-25.59407783 233.93191289z m0 0M914.23590034 124.87551298999995m37.36758076 0l58.67524425 0q37.36758077 0 37.36758075-37.36758076l0 0q0-37.36758077-37.36758075-37.36757989l-58.67524425 0q-37.36758077 0-37.36758076 37.36757989l0 0q0 37.36758077 37.36758076 37.36758076ZM599.28057778 414.66652969c54.7959832 42.97724122 90.13910977 109.70506406 90.13910978 184.564633C689.41968756 728.69444795 584.11413549 834 454.65085025 834S219.92725201 728.64920889 219.92725201 599.1859236299999c0-74.89349824 35.37705586-141.53084297 90.13910888-184.564633C165.78723696 356.98654747 63.42223366 215.98726523000005 63.42223366 51.384430080000016v-78.26381895a39.09798018 39.09798018 0 0 1 39.1205997-39.1205997h704.31782167a39.09798018 39.09798018 0 0 1 39.12059973 39.1205997v78.26381895c0 164.64807422-102.31976425 305.60211737-246.70067695 363.28209961zM454.70739908 755.69094199c86.31639668 0 156.51632813-70.18862167 156.51632812-156.51632813s-70.19993145-156.50501836-156.51632812-156.50501836-156.52763789 70.19993145-156.5276379 156.51632813S368.37969264 755.70225175 454.69608932 755.70225175z m313.02134647-743.43842139H141.66343306v39.13190948c0 172.59886406 140.43379219 313.02134647 313.06658555 313.02134647s312.99872697-140.42248242 312.99872696-313.02134647z m112.10274141 416.50602013a195.42204141 195.42204141 0 0 1-93.87134296 320.24830868 39.1386955 39.1386955 0 0 1-20.3576414-75.58339569 117.39572842 117.39572842 0 0 0 17.23613641-220.54110821 38.22712558 38.22712558 0 0 1-12.44078085-8.67461748c-0.30536455-0.35060362-0.68989747-0.57679981-0.99526201-0.91609365a38.23843535 38.23843535 0 0 1-5.84716728-9.25141641 39.69739951 39.69739951 0 0 1-2.26196017-4.89714433c-0.27143526-0.88216436-0.91609365-1.56075205-1.13098007-2.48815547-0.3845329-1.605992 0-3.13281474-0.15833672-4.73880674a37.70687461 37.70687461 0 0 1-0.30536456-9.04783975 33.77106387 33.77106387 0 0 1 0.99526203-4.52392031c0.53156074-2.45422705 0.53156074-4.96500205 1.60599198-7.34006074a38.69082685 38.69082685 0 0 1 30.44598222-22.61960069 233.5473791 233.5473791 0 0 0 177.1454048-227.32698867v-60.53005195a39.13190948 39.13190948 0 0 1 78.25250917 0v60.51874219c0 119.40887285-66.41114855 224.95193086-168.24459109 277.72345898z m0 0"  horiz-adv-x="1120" />

    
    <glyph glyph-name="jilu1" unicode="&#58952;" d="M512-127.998537A475.420846 475.420846 0 0 0 53.584592 474.14025a54.856251 54.856251 0 1 0 105.872565-29.073814A365.708343 365.708343 0 1 1 512 713.130652a361.502697 361.502697 0 0 1-169.688671-41.507897A54.856251 54.856251 0 1 0 291.477869 767.986903 475.420846 475.420846 0 1 0 512-127.998537zM566.856251 598.481086h-54.856251a18.285417 18.285417 0 0 1-18.285417-18.285417v-224.727777a18.285417 18.285417 0 0 0-18.285417-18.285417h-169.688671a18.285417 18.285417 0 0 1-18.285418-18.285417v-54.856252a18.285417 18.285417 0 0 1 18.285418-18.285417H566.856251a18.285417 18.285417 0 0 1 18.285418 18.285417V580.195669a18.285417 18.285417 0 0 1-18.285418 18.285417zM402.287497 575.624315a54.856251 54.856251 0 0 0-19.931105 3.657083l-151.403254 59.244752a54.856251 54.856251 0 0 0-31.085209 71.130272l59.244752 151.403254a54.856251 54.856251 0 0 0 102.215482-39.862209l-40.227918-100.38694 100.38694-39.313647A54.856251 54.856251 0 0 0 402.287497 575.624315z"  horiz-adv-x="1024" />

    
    <glyph glyph-name="jilu2" unicode="&#59227;" d="M512-57.81818174c244.02272695 0 441.81818174 197.79545479 441.81818174 441.81818174C953.81818174 628.02272695 756.02272695 825.81818174 512 825.81818174 267.97727305 825.81818174 70.18181826 628.02272695 70.18181826 384c0-244.02272695 197.79545479-441.81818174 441.81818174-441.81818174z m0 65.45454522a376.36363653 376.36363653 0 1 0 0 752.72727305 376.36363653 376.36363653 0 0 0 0-752.72727305zM365.62727305 218.80909130999999a32.72727305 32.72727305 0 1 1 47.29090869-45.24545478l157.90909131 164.86363652a40.90909131 40.90909131 0 0 1 11.33181826 28.30909042V547.63636347a32.72727305 32.72727305 0 1 1-65.4545461 1e-8v-171.04090869l-151.07727216-157.78636348z"  horiz-adv-x="1024" />

    
    <glyph glyph-name="xuexiao3" unicode="&#59157;" d="M512 302.72a128 128 0 1 1-128 128 128 128 0 0 1 128-128z m0 213.333333a85.333333 85.333333 0 1 0-85.333333-85.333333 85.333333 85.333333 0 0 0 85.333333 85.333333zM512 405.333333h42.666667a16.64 16.64 0 0 1 16.64 16.64 16.853333 16.853333 0 0 1-16.64 16.853334h-26.026667v44.8a16.64 16.64 0 1 1-33.28 0v-61.653334A16.64 16.64 0 0 1 512 405.333333zM874.666667 443.52h-106.666667v65.066667a64 64 0 0 1-23.466667 49.493333l-192 157.013333a64 64 0 0 1-81.066666 0l-192-157.013333a64 64 0 0 1-23.466667-49.493333v-86.4H149.333333a64 64 0 0 1-64-64v-298.666667a21.333333 21.333333 0 0 1 21.333334-21.333333 21.333333 21.333333 0 0 1 21.333333 21.333333v298.666667a21.333333 21.333333 0 0 0 21.333333 21.333333h106.666667v-320a21.333333 21.333333 0 0 1 21.333333-21.333333 21.333333 21.333333 0 0 1 21.333334 21.333333v448a21.333333 21.333333 0 0 0 7.893333 16.426667l192 157.226666a21.333333 21.333333 0 0 0 26.88 0l196.693333-161.066666a7.893333 7.893333 0 0 0 3.2-6.613334V59.733333a21.333333 21.333333 0 0 1 21.333334-21.333333 21.333333 21.333333 0 0 1 21.333333 21.333333v341.333334h106.666667a21.333333 21.333333 0 0 0 21.333333-21.333334v-320a21.333333 21.333333 0 0 1 21.333333-21.333333 21.333333 21.333333 0 0 1 21.333334 21.333333v320a64 64 0 0 1-64 63.786667zM590.293333 265.813333H448a64 64 0 0 1-64-64v-142.08a21.333333 21.333333 0 0 1 21.333333-21.333333 21.333333 21.333333 0 0 1 21.333334 21.333333v142.08a21.333333 21.333333 0 0 0 21.333333 21.333334h142.293333a21.333333 21.333333 0 0 0 21.333334-21.333334v-142.08a21.333333 21.333333 0 0 1 21.333333-21.333333 21.333333 21.333333 0 0 1 21.333333 21.333333v142.08a64 64 0 0 1-64 64z"  horiz-adv-x="1024" />

    
    <glyph glyph-name="shanchu" unicode="&#58880;" d="M344.4593 104.618c15.4235 0 27.902 12.4795 27.902 27.902L372.3613 439.441408c0 15.4225-12.4795 27.902-27.902 27.902-15.4225 0-27.902-12.4805-27.902-27.902l0-306.922496C316.5573 117.0964 329.0368 104.618 344.4593 104.618zM511.872 104.618c15.4235 0 27.902 12.4795 27.902 27.902L539.774 439.441408c0 15.4225-12.4795 27.902-27.902 27.902s-27.902-12.4805-27.902-27.902l0-306.922496C483.969 117.0964 496.4485 104.618 511.872 104.618zM679.2837 104.618c15.4235 0 27.902 12.4795 27.902 27.902L707.1857 439.441408c0 15.4225-12.4795 27.902-27.902 27.902s-27.902-12.4805-27.902-27.902l0-306.922496C651.3818 117.0964 663.8602 104.618 679.2837 104.618zM818.7935 746.3639 703.234048 746.3639c-12.4795 48.0113-55.8039 83.7059-107.6572 83.7059L428.16512 830.0698c-51.8533 0-95.1777-35.6946-107.6572-83.7059L204.949504 746.3639c-61.5526 0-111.6078-50.0828-111.6078-111.6078l0-27.902976 27.901952 0 0-27.901952 55.803904 0 0-530.138112c0-61.526 50.0552-111.6078 111.6078-111.6078l446.432256 0c61.5547 0 111.6078 50.0818 111.6078 111.6078L846.695416 578.952192l55.803904 0 0 27.901952 27.901952 0 0 27.902976C930.4013 696.2821 880.3482 746.3639 818.7935 746.3639zM428.1651 774.2659l167.411712 0c20.5445 0 38.3652-11.308 48.0389-27.902L380.127232 746.3639C389.801 762.9578 407.6206 774.2659 428.1651 774.2659zM790.8915 48.8141c0-30.7896-25.0399-55.8039-55.8039-55.8039L288.65536-6.9898c-30.763 0-59.6726 25.0143-59.6726 55.8039l3.8687 530.1381 558.040064 0L790.891524 48.81408zM149.1446 634.7561c0 30.7896 25.0419 55.8039 55.8039 55.8039L818.793472 690.56c30.7651 0 55.8039-25.0143 55.8039-55.8039L149.144576 634.7561z"  horiz-adv-x="1024" />

    
    <glyph glyph-name="mima" unicode="&#58964;" d="M779.821998 528.013434l-5.15869 0c-2.579345 0-2.579345 0-5.15869 0L769.504618 623.449202C770.3644 779.069689 657.732997 896 508.990764 896c-146.162888 0-257.934509-116.930311-257.934509-272.550798l0-95.435768-7.738035 0c-78.240134 0-141.004198-66.203191-141.004198-143.583543l0-367.986566c0-80.819479 63.623846-143.583543 141.004198-143.583543l536.503778 0c78.240134 0 141.004198 66.203191 141.004198 143.583543L920.826196 384.429891C919.106633 464.389589 855.482788 528.013434 779.821998 528.013434zM294.905122 625.168766c0 134.125945 90.277078 228.701931 214.085642 228.701931 126.387909 0 216.664987-97.155332 216.664987-228.701931l0-95.435768L292.325777 529.732997 292.325777 625.168766 294.905122 625.168766zM877.837112 16.443325c0-55.88581-43.848866-102.314022-97.155332-102.314022L243.31822-85.870697c-53.306465 0-97.155332 46.428212-97.155332 102.314022L146.162888 384.429891c0 55.88581 43.848866 102.314022 97.155332 102.314022L257.934509 486.743913l36.970613 0 434.189757 0 51.586902 0 0 0c53.306465 0 97.155332-46.428212 97.155332-102.314022L877.837112 16.443325 877.837112 16.443325zM507.271201 328.544081c-34.391268 0-61.0445-29.232578-61.0445-63.623846 0-24.073887 12.036944-43.848866 31.811923-55.88581l0-104.893367c0-17.195634 14.616289-31.811923 31.811923-31.811923s31.811923 14.616289 31.811923 31.811923L541.662469 209.034425c19.774979 12.036944 31.811923 31.811923 31.811923 55.88581C567.455919 298.451721 540.802687 328.544081 507.271201 328.544081z"  horiz-adv-x="1024" />

    
    <glyph glyph-name="kechengguanli" unicode="&#58903;" d="M613.9072 370.6688 550.4 370.6688 550.4 520.8c0 25.184-20.4096 45.6-45.6 45.6-25.184 0-45.6-20.416-45.6-45.6l0-196.8c0-25.184 20.416-45.6 45.6-45.6 3.3472 0 6.5984 0.384 9.7408 1.0688l32.1728 0c18.816 47.2064 50.5984 78.6432 50.5984 78.6432C602.784 362.9056 608.3264 367.0336 613.9072 370.6688zM896 226.2272c-26.2016 43.6608-25.7792 44.4864-25.7792 44.4864s-90.4512-25.3632-107.296 61.3376l-52.4032 0c0 0-14.4512-86.8352-106.8672-61.1264-26.72-44.5248-27.6288-45.9264-27.6544-45.952 0.0384-0.0256 72.3392-50.5344 0-119.136l28.0768-46.1632c0 0 79.872 34.4512 106.0352-59.6736l53.024 0c0 0 16.6336 86.5024 106.4576 60.928 25.5744 43.6608 25.9904 44.0768 25.9904 44.0768S827.7696 163.4624 896 226.2272L896 226.2272zM735.584 104.9024c-33.7536 0-61.1328 27.36-61.1328 61.1264s27.3728 61.1392 61.1328 61.1392c33.76 0 61.1392-27.3728 61.1392-61.1392S769.344 104.9024 735.584 104.9024L735.584 104.9024zM735.584 104.9024M896 384c0 212.0768-171.9232 384-384 384-212.0768 0-384-171.9232-384-384 0-212.0768 171.9232-384 384-384 28.928 0 57.056 3.2896 84.1344 9.3696-32.8704 33.3312-50.528 65.7088-59.7056 87.7952C528.3712 96.4672 520.2432 96 512 96c-159.0592 0-288 128.9408-288 288s128.9408 288 288 288c159.0592 0 288-128.9408 288-288 0-10.2976-0.6272-20.448-1.6832-30.4704 22.3168-5.9648 57.92-18.4832 90.6432-42.8928C893.568 334.3872 896 358.9056 896 384z"  horiz-adv-x="1024" />

    
    <glyph glyph-name="xiugai07" unicode="&#59192;" d="M234.057143 142.628571c14.628571 0 29.257143 7.314286 43.885714 14.628571l7.314286 0-146.285714 146.285714 0-7.314286C131.657143 281.6 124.342857 266.971429 124.342857 252.342857L73.142857 91.428571 234.057143 142.628571 234.057143 142.628571 234.057143 142.628571 234.057143 142.628571zM746.057143 727.771429 702.171429 778.971429c-29.257143 29.257143-65.828571 29.257143-95.085714 0L563.2 727.771429l138.971429-138.971429 43.885714 43.885714C775.314286 661.942857 775.314286 705.828571 746.057143 727.771429L746.057143 727.771429 746.057143 727.771429 746.057143 727.771429zM658.285714 544.914286 519.314286 683.885714 190.171429 354.742857l138.971429-138.971429L658.285714 544.914286 658.285714 544.914286 658.285714 544.914286 658.285714 544.914286zM0 18.285714l1024 0 0-73.142857L0-54.857143 0 18.285714 0 18.285714z"  horiz-adv-x="1024" />

    
    <glyph glyph-name="Setup" unicode="&#58941;" d="M1019.769 446.68c0.889-7.411 1.536-14.875 2.183-22.366 1.051-13.339 2.048-26.678 2.048-40.286 0-13.608-0.997-26.947-2.048-40.286-0.647-7.464-1.293-14.956-2.183-22.339 0 0 0 0 0.027 0-2.398-19.51-6.009-38.589-10.509-57.371-48.397-11.965-94.451-45.002-123.715-95.69-29.265-50.688-34.843-107.116-21.046-154.974-14.067-13.393-28.941-25.869-44.463-37.592 0 0.027-0.027 0.027-0.027 0.054-24.199-18.27-50.014-34.493-77.231-48.371-0.135-0.081-0.296-0.162-0.431-0.216-13.312-6.791-26.974-12.989-40.96-18.594-1.132-0.458-2.317-0.808-3.449-1.267-13.42-5.282-27.055-10.105-41.014-14.228-34.547 36.056-86.285 59.5-144.95 59.5-58.664 0-110.403-23.471-144.95-59.5 0 0 0 0 0 0-13.959 4.123-27.594 8.947-41.014 14.228-1.159 0.458-2.317 0.808-3.476 1.267-13.959 5.605-27.621 11.803-40.933 18.594-0.162 0.054-0.296 0.135-0.431 0.216-27.217 13.878-53.032 30.1-77.231 48.371-0.027-0.027-0.027-0.027-0.027-0.054-15.522 11.722-30.424 24.199-44.49 37.592 13.824 47.859 8.246 104.286-21.019 154.974-29.265 50.688-75.345 83.725-123.715 95.69-4.5 18.782-8.111 37.861-10.509 57.344 0.027 0 0.027 0 0.027 0-0.889 7.411-1.536 14.902-2.21 22.366-1.024 13.339-2.021 26.678-2.021 40.286 0 13.608 0.997 26.947 2.021 40.286 0.674 7.491 1.32 14.956 2.21 22.366 0 0 0 0-0.027 0 2.398 19.483 6.009 38.589 10.509 57.344 48.371 11.965 94.424 45.002 123.688 95.69 29.265 50.688 34.843 107.089 21.046 154.974 14.067 13.393 28.941 25.843 44.463 37.592 0-0.027 0.027-0.054 0.027-0.081 24.199 18.27 50.041 34.52 77.258 48.424 0.135 0.054 0.269 0.108 0.404 0.189 13.339 6.791 27.001 12.989 40.987 18.594 1.132 0.458 2.291 0.808 3.422 1.267 13.42 5.282 27.082 10.105 41.068 14.228 34.547-36.029 86.285-59.473 144.923-59.473 58.637 0 110.376 23.444 144.923 59.473 13.986-4.123 27.621-8.947 41.068-14.228 1.132-0.458 2.291-0.808 3.422-1.267 13.986-5.605 27.648-11.803 40.987-18.594 0.135-0.081 0.269-0.135 0.404-0.189 27.217-13.905 53.032-30.154 77.258-48.424 0 0.027 0 0.054 0.027 0.081 15.522-11.749 30.397-24.199 44.463-37.592-13.797-47.885-8.219-104.286 21.046-154.974 29.265-50.688 75.318-83.725 123.661-95.69 4.527-18.755 8.138-37.834 10.509-57.344 0 0 0 0 0 0zM963.261 462.174c-49.368 20.48-94.073 58.314-124.281 110.646-30.073 52.089-40.529 109.433-33.792 162.223-40.017 33.388-85.639 60.335-135.518 78.632-42.388-32.391-97.388-52.089-157.669-52.089-60.281 0-115.281 19.699-157.669 52.089-49.88-18.297-95.501-45.245-135.545-78.632 6.764-52.79-3.719-110.134-33.792-162.223-30.181-52.332-74.887-90.166-124.254-110.646-4.392-25.411-6.845-51.469-6.845-78.147 0-26.678 2.452-52.736 6.845-78.147 49.368-20.453 94.073-58.314 124.308-110.619 30.073-52.089 40.529-109.46 33.765-162.277 40.017-33.361 85.639-60.308 135.491-78.605 42.388 32.391 97.415 52.116 157.696 52.116 60.281 0 115.308-19.725 157.696-52.116 49.853 18.297 95.448 45.245 135.491 78.605-6.791 52.817 3.692 110.188 33.765 162.277 30.208 52.305 74.914 90.166 124.308 110.646 4.365 25.384 6.845 51.443 6.845 78.12 0 26.678-2.479 52.736-6.845 78.147zM512 195.665c-104.044 0-188.389 84.345-188.389 188.389 0 104.017 84.345 188.362 188.389 188.362 104.017 0 188.362-84.345 188.362-188.362 0-104.044-84.345-188.389-188.362-188.389zM512 518.44c-74.24 0-134.387-60.173-134.387-134.387 0-74.24 60.147-134.413 134.387-134.413 74.213 0 134.387 60.173 134.387 134.413 0 74.213-60.173 134.387-134.387 134.387z"  horiz-adv-x="1024" />

    
    <glyph glyph-name="weibiaoti2fuzhi16" unicode="&#58925;" d="M902.4 320c-25.6-6.4-51.2-12.8-83.2-12.8-6.4-32-19.2-57.6-32-83.2 19.2-25.6 32-44.8 51.2-70.4L742.4 64c-19.2 12.8-44.8 32-70.4 51.2-25.6-12.8-51.2-25.6-83.2-32-6.4-32-6.4-57.6-12.8-83.2L448 0c-6.4 25.6-12.8 51.2-12.8 83.2-32 6.4-57.6 19.2-83.2 32-25.6-19.2-44.8-32-70.4-51.2L192 153.6c12.8 19.2 32 44.8 51.2 70.4-12.8 25.6-25.6 51.2-32 83.2C172.8 307.2 147.2 313.6 121.6 320L121.6 448c25.6 6.4 51.2 12.8 83.2 12.8 6.4 32 19.2 57.6 32 83.2C217.6 569.6 204.8 595.2 192 614.4L281.6 704c19.2-12.8 44.8-32 70.4-51.2 25.6 12.8 51.2 25.6 83.2 32C435.2 723.2 441.6 748.8 448 774.4l128 0c6.4-25.6 12.8-51.2 12.8-83.2 32-6.4 57.6-19.2 83.2-32 25.6 19.2 44.8 32 70.4 51.2L832 614.4c-12.8-19.2-32-44.8-51.2-70.4 12.8-25.6 25.6-51.2 32-83.2 32-6.4 57.6-6.4 83.2-12.8L896 320zM915.2 505.6C896 505.6 883.2 512 864 512c-6.4 6.4-6.4 19.2-12.8 25.6 12.8 12.8 19.2 32 32 44.8C896 608 896 633.6 876.8 652.8l-89.6 89.6c-12.8 12.8-25.6 19.2-38.4 19.2-12.8 0-19.2 0-32-6.4-12.8-6.4-25.6-19.2-44.8-32-6.4 6.4-19.2 6.4-25.6 12.8 0 19.2-6.4 38.4-12.8 51.2C627.2 812.8 601.6 832 576 832L448 832C422.4 832 396.8 812.8 390.4 787.2 390.4 774.4 384 755.2 384 736 371.2 729.6 364.8 729.6 352 723.2 339.2 736 326.4 742.4 313.6 755.2 300.8 761.6 288 761.6 281.6 761.6c-12.8 0-32-6.4-38.4-19.2L147.2 652.8C128 633.6 128 608 140.8 582.4c6.4-12.8 19.2-25.6 32-44.8C166.4 531.2 166.4 524.8 160 512 140.8 512 121.6 505.6 108.8 505.6 83.2 499.2 64 473.6 64 448l0-128c0-25.6 19.2-51.2 44.8-57.6C121.6 262.4 140.8 256 160 256c6.4-6.4 6.4-19.2 12.8-25.6-12.8-12.8-19.2-32-32-44.8C128 160 128 134.4 147.2 115.2l89.6-89.6c12.8-12.8 25.6-19.2 38.4-19.2 12.8 0 19.2 0 32 6.4 12.8 6.4 25.6 19.2 44.8 32 6.4-6.4 19.2-6.4 25.6-12.8 0-19.2 6.4-38.4 12.8-51.2C396.8-44.8 422.4-64 448-64l128 0c25.6 0 51.2 19.2 57.6 44.8 6.4 19.2 6.4 32 12.8 51.2 6.4 6.4 19.2 6.4 25.6 12.8 12.8-12.8 32-19.2 44.8-32 6.4-6.4 19.2-6.4 32-6.4 12.8 0 32 6.4 38.4 19.2l89.6 89.6c19.2 19.2 19.2 51.2 6.4 70.4-6.4 12.8-19.2 25.6-32 44.8 6.4 6.4 6.4 19.2 12.8 25.6 19.2 0 38.4 6.4 51.2 6.4C940.8 268.8 960 294.4 960 320L960 448C960 473.6 940.8 499.2 915.2 505.6zM512 268.8C448 268.8 396.8 320 396.8 384 396.8 448 448 492.8 512 492.8 576 492.8 620.8 448 620.8 384 620.8 320 576 268.8 512 268.8zM512 550.4C422.4 550.4 345.6 473.6 345.6 384s76.8-166.4 166.4-166.4 166.4 76.8 166.4 166.4S601.6 550.4 512 550.4z"  horiz-adv-x="1024" />

    
    <glyph glyph-name="yonghu" unicode="&#58884;" d="M811.739-70.597c-0.048 0-0.095 0-0.143 0l-718.856 0c-10.326 0-18.697 8.371-18.697 18.697l0 22.468c-0.318 6.267-0.911 40.604 21.004 78.307 13.716 23.598 33.431 43.861 58.598 60.225 30.493 19.829 69.116 33.909 114.796 41.849 0.233 0.04 0.467 0.076 0.701 0.107 0.347 0.047 35.499 4.859 71.209 14.273 61.895 16.318 67.308 30.743 67.346 30.884 0.364 1.431 0.894 2.804 1.573 4.095 0.508 2.699 1.764 12.859-0.638 40.08-6.101 69.136-42.12 109.995-71.061 142.826-9.128 10.355-17.749 20.133-24.387 29.723-28.64 41.372-31.297 88.416-31.396 90.399-0.015 0.311-0.023 0.622-0.023 0.933 0 18.78 9.363 27.418 17.624 35.041l0.434 0.401c0.271 0.251 0.442 0.437 0.542 0.557 0.093 1.341-0.567 4.743-1.013 7.041-0.17 0.874-0.34 1.751-0.501 2.633-7.18 38.982-7.671 99.192-1.176 137.837 2.41 50.813 46.225 89.711 48.105 91.356 0.072 0.062 0.143 0.124 0.215 0.185 6.29 5.339 12.672 11.169 16.728 17.637 0.487 0.776 0.828 1.377 1.066 1.837-0.305 0.787-0.742 1.794-1.095 2.608-2.436 5.619-6.118 14.109-4.024 25.024 1.264 6.589 6.078 18.362 24.118 23.174 7.261 1.937 15.022 2.333 20.689 2.622l1.123 0.058c22.39 1.179 46.273 2.177 70.435 0.324 174.73-13.396 234.92-78.686 237.396-81.459 0.14-0.156 0.276-0.314 0.409-0.475 13.987-16.757 24.347-37.635 30.796-62.055 2.015-7.62 3.309-14.016 4.063-20.072 6.103-35.465 5.085-71.904 3.782-96.269-0.733-13.675-2.257-28.03-4.8-45.176-0.692-4.656 0.069-5.565 0.355-5.906 0.758-0.907 1.686-1.892 2.668-2.935 3.863-4.099 9.152-9.713 11.964-18.721 1.41-4.503 2.069-9.36 2.069-15.268 0-0.311-0.008-0.622-0.023-0.933-0.099-1.982-2.756-49.026-31.395-90.398-6.639-9.59-15.26-19.369-24.387-29.723-28.942-32.83-64.96-73.689-71.061-142.828-2.402-27.221-1.145-37.379-0.638-40.08 0.678-1.291 1.208-2.665 1.573-4.094 0.037-0.141 5.472-14.614 67.649-30.964 35.705-9.389 70.558-14.146 70.906-14.193 0.304-0.041 0.607-0.09 0.909-0.145 46.096-8.55 84.957-22.992 115.505-42.923 25.252-16.476 44.93-36.702 58.489-60.114 21.502-37.129 20.627-70.714 20.196-77.444l0-22.333c0-10.326-8.371-18.697-18.697-18.697l-176.883 0c-10.326 0-18.697 8.371-18.697 18.697 0 10.326 8.371 18.697 18.697 18.697L934.07-33.207l0 4.311c0 0.687 0.009 1.106 0.082 1.769 0.104 1.508 1.627 28.332-16.349 58.131-10.82 17.938-26.59 33.609-46.87 46.581-26.1 16.693-59.762 28.968-100.052 36.483-4.64 0.643-39.012 5.565-75.081 15.06-70.761 18.629-87.964 39.353-93.189 54.396-4.004 7.766-6.245 23.195-2.985 60.153 7.181 81.369 49.419 129.282 80.261 164.268 8.747 9.922 16.301 18.491 21.693 26.279 21.12 30.511 24.438 66.3 24.765 70.606-0.033 2.252-0.261 3.223-0.362 3.55-0.249 0.798-1.897 2.547-3.49 4.238-1.25 1.327-2.668 2.833-4.136 4.587-7.95 9.504-10.783 21.079-8.66 35.385 2.368 15.96 3.781 29.206 4.449 41.684 1.951 36.502 0.914 63.748-3.364 88.341-0.057 0.326-0.105 0.655-0.145 0.983-0.531 4.438-1.531 9.354-3.148 15.469-4.987 18.884-12.727 34.771-23.007 47.233-1.714 1.748-15.385 15.125-45.883 29.676C583.715 802.16 517.807 811.826 472.181 815.325c-21.935 1.681-44.442 0.733-65.614-0.383l-1.179-0.06c-1.766-0.09-4.736-0.242-7.558-0.526 2.448-5.841 5.453-14.632 2.296-25.136-1.185-3.94-3.003-7.792-5.723-12.129-6.732-10.733-15.924-19.236-24.055-26.145-1.597-1.442-34.223-31.356-35.351-65.738-0.029-0.87-0.118-1.737-0.267-2.594-5.972-34.304-5.569-90.78 0.898-125.894 0.14-0.765 0.289-1.526 0.436-2.283 1.98-10.205 5.295-27.284-10.88-42.202l-0.435-0.402c-2.087-1.925-4.944-4.561-5.416-5.469l0 0c0.003 0-0.133-0.427-0.165-1.584 0.328-4.296 3.654-40.06 24.764-70.555 5.392-7.788 12.946-16.357 21.693-26.279 30.841-34.985 73.079-82.899 80.26-164.266 3.26-36.959 1.019-52.388-2.985-60.154-5.226-15.043-22.428-35.767-93.189-54.396-36.365-9.574-71.006-14.497-75.189-15.074-39.834-6.958-73.196-18.883-99.16-35.445-20.186-12.876-35.971-28.599-46.919-46.732-18.282-30.282-17.133-57.861-17.055-59.336 0.05-0.543 0.054-0.868 0.054-1.434l0-4.309 700.077 0M631.465 206.126c0.454-0.368 0.89-0.757 1.306-1.165C632.377 205.348 631.942 205.739 631.465 206.126zM414.041 206.126c-0.472-0.383-0.902-0.768-1.292-1.152C413.16 205.375 413.592 205.76 414.041 206.126z"  horiz-adv-x="1024" />

    
    <glyph glyph-name="anquan" unicode="&#59022;" d="M165.101068 654.059179c0 41.997991 0.041274 83.996988-0.041274 125.994978-0.013087 6.892788 1.731502 12.959087 6.751852 17.800246 5.867981 5.65859 12.923852 8.233696 20.836415 5.842814 21.678006-6.551521 43.409366-4.858273 65.193074-1.064069 19.12706 3.332135 36.951467 10.003452 53.935289 19.593156 36.408862 20.560583 74.395204 37.555479 115.0392 48.089456 23.471923 6.083412 47.288133 9.540376 71.573459 9.234343 16.688863-0.209391 33.414974 0.02114 50.056523-1.033868 34.222337-2.170418 66.982964-10.978932 98.772138-23.587692 23.915872-9.485008 46.937805-20.854536 68.459775-34.908898 15.236213-9.949091 31.885816-15.050983 49.496805-17.920042 17.307976-2.820738 34.679373-4.189833 52.140366-1.489897 3.789171 0.586899 7.561229 1.451643 11.244698 2.519738 16.096931 4.672036 30.044585-5.635436 30.108006-22.449128 0.065435-17.468039 0.016107-34.937085 0.0151-52.406131 0-58.057674 0.276839-116.116355-0.069461-174.172016-0.497304-83.420156-20.017978-162.510549-57.012733-237.061789-61.743157-124.423539-154.694629-218.422973-278.11148-282.276146-8.485368-4.389157-16.420078-4.466672-24.895379-0.025167-143.877773 75.35961-244.476042 188.847504-300.434773 341.46131-16.337529 44.554976-26.363129 90.712599-29.513054 138.0561-1.915726 28.798306-1.677141 57.747614-2.136191 86.633502-0.281872 17.718704-0.052348 35.445462-0.052348 53.1692C166.005073 654.059179 165.552064 654.059179 165.101068 654.059179zM510.502553 455.726667c0 116.146556 0 231.804868 0 347.344391-0.46207 0.238585-0.678507 0.439922-0.905012 0.454016-1.280506 0.076508-2.565039 0.146976-3.846552 0.147983-45.083487 0.026174-88.295543-8.532682-128.741221-28.910048-35.241105-17.754945-71.116423-33.740134-109.617181-43.201989-8.662545-2.129144-17.137846-5.018337-25.830591-7.59747 0-1.778817 0.008053-3.183145-0.001007-4.585461-0.16107-23.247432-0.447976-46.494863-0.461063-69.742295-0.028187-50.71691-1.163731-101.487174 5.814626-151.929258 2.017401-14.58388 4.475732-29.108365 6.78608-44.007339C339.637505 454.375692 424.97842 455.050173 510.502553 455.726667zM511.404544 455.769954c0.621126-115.703613 1.239232-230.897843 1.860358-346.427299 1.748616 0.745955 3.048249 1.267419 4.319696 1.848278 29.47178 13.490617 55.328545 32.309631 79.262537 53.926229 31.201268 28.17718 58.274112 60.054942 83.203718 93.775949 18.532108 25.066516 37.458837 49.928674 51.350116 78.041425 6.692458 13.546992 14.060403 26.929894 19.029411 41.119152 8.126987 23.212197 14.697636 46.98512 18.648884 71.360041 0.970447 5.988783 0.578845 6.354211-5.425038 6.354211-82.443669 0.001007-164.886332 0.001007-247.330001 0.001007C514.802114 455.769954 513.276983 455.769954 511.404544 455.769954z"  horiz-adv-x="1024" />

    
    <glyph glyph-name="mima1" unicode="&#58976;" d="M791.366 436.93l-459.174 0.791c-0.186 61.936-16.847 157.926 36.027 216.192 32.142 35.52 86.326 72.068 144.127 72.068 85.395 0 149.246-64.412 180.166-144.126 9.009-22.992 16.936-35.38 36.037-36.037 47.899-1.45 44.986 49.075 36.029 72.067C719.914 732.97 636.118 798.047 512.346 798.047c-84.12 0-130.475-17.265-180.154-72.065-76.009-83.746-72.259-219.151-72.067-288.26l-26.795-0.791c-25.045 0-45.273-20.034-45.273-44.667v-378.249c0-24.774 20.269-44.755 45.273-44.755h557.99c25.009 0 45.273 19.989 45.273 44.755V392.263c0.046 24.678-20.218 44.667-45.227 44.667zM765.68 77.65c0-9.966-3.476-18.514-10.58-25.52-7.045-7.051-15.56-10.58-25.517-10.58H296.362c-9.966 0-18.472 3.478-25.475 10.58-7.051 7.049-10.624 15.553-10.624 25.52V330.365c0 19.878 16.166 36.054 36.098 36.054h433.212c19.932 0 36.107-16.176 36.107-36.054V77.65z"  horiz-adv-x="1024" />

    
    <glyph glyph-name="xuesheng" unicode="&#59328;" d="M928 332.8a32 32 0 0 0-32 32V524.8a32 32 0 0 0 64 0v-160a32 32 0 0 0-32-32zM515.584 371.2c-20.8 0-38.848 2.816-56.896 8.96L49.28 536.128C6.336 553.664 0 580.672 0 595.2c0 14.592 6.336 41.6 48.576 58.816l405.376 155.776c31.232 12.096 84.736 12.16 116.16 0l404.672-155.52c42.88-17.408 49.216-44.48 49.216-59.072 0-14.592-6.336-41.536-48.64-58.816L570.048 380.608c-13.312-6.08-31.68-9.408-54.464-9.408zM73.92 595.2l406.464-154.752c10.432-3.584 21.248-5.248 35.2-5.248 16.512 0 25.344 2.432 29.76 4.416L950.016 595.2 547.072 750.016c-16.768 6.528-53.504 6.464-70.08 0L73.92 595.2zM515.584 251.84c-20.736 0-38.784 2.88-56.896 9.024L180.16 366.848l22.72 59.84 277.44-105.664c10.496-3.52 21.312-5.248 35.2-5.248 16.448 0 25.28 2.432 29.76 4.48l275.136 105.792 22.976-59.776-273.344-105.024c-13.376-6.144-31.744-9.408-54.464-9.408zM515.456-51.2c-164.8 0-346.304 50.368-355.328 161.024L160 396.8a32 32 0 0 0 64 0v-281.024c4.416-56.128 137.92-102.976 291.456-102.976 120.768 0 232.32 28.352 271.296 68.928 9.344 9.664 13.632 19.328 13.184 29.376V394.496a32 32 0 0 0 64 0v-278.72c1.152-29.632-9.6-56-30.976-78.336-62.784-65.344-205.12-88.64-317.504-88.64zM928 268.8m-32 0a32 32 0 1 1 64 0 32 32 0 1 1-64 0Z"  horiz-adv-x="1024" />

    
    <glyph glyph-name="chengjizhongxin" unicode="&#58906;" d="M981.333333-64h-21.333333V320a21.333333 21.333333 0 0 1-42.666667 0v-384h-128V682.666667a42.666667 42.666667 0 0 0 42.666667 42.666666h42.666667a42.666667 42.666667 0 0 0 42.666666-42.666666v-21.333334a21.333333 21.333333 0 0 1 42.666667 0v21.333334a85.333333 85.333333 0 0 1-85.333333 85.333333h-42.666667a85.333333 85.333333 0 0 1-85.333333-85.333333v-746.666667h-85.333334V469.333333a85.333333 85.333333 0 0 1-85.333333 85.333334h-42.666667a85.333333 85.333333 0 0 1-85.333333-85.333334v-533.333333h-85.333333V256a85.333333 85.333333 0 0 1-85.333334 85.333333h-42.666666a85.333333 85.333333 0 0 1-85.333334-85.333333v-320H64V853.333333a21.333333 21.333333 0 0 1-42.666667 0v-938.666666a21.333333 21.333333 0 0 1 21.333334-21.333334h938.666666a21.333333 21.333333 0 0 1 0 42.666667z m-661.333333 0H192V256a42.666667 42.666667 0 0 0 42.666667 42.666667h42.666666a42.666667 42.666667 0 0 0 42.666667-42.666667z m298.666667 0h-128V469.333333a42.666667 42.666667 0 0 0 42.666666 42.666667h42.666667a42.666667 42.666667 0 0 0 42.666667-42.666667zM938.666667 512a21.333333 21.333333 0 0 1-21.333334-21.333333v-85.333334a21.333333 21.333333 0 0 1 42.666667 0v85.333334a21.333333 21.333333 0 0 1-21.333333 21.333333zM958.293333 584.106667a24.533333 24.533333 0 0 1-4.48 7.04l-3.2 2.56a16.213333 16.213333 0 0 1-3.84 1.92L942.933333 597.333333a21.333333 21.333333 0 0 1-12.373333-1.28 19.2 19.2 0 0 1-11.52-11.52 21.333333 21.333333 0 0 1-1.706667-8.533333 21.333333 21.333333 0 0 1 6.186667-15.146667 21.333333 21.333333 0 0 1 7.04-4.48A21.333333 21.333333 0 0 1 938.666667 554.666667a21.333333 21.333333 0 0 1 15.146666 6.186666A22.4 22.4 0 0 1 960 576a21.333333 21.333333 0 0 1-1.706667 8.106667z"  horiz-adv-x="1024" />

    
    <glyph glyph-name="mima2" unicode="&#58990;" d="M476.288 206.656v-91.648c0-19.776 15.872-35.776 35.648-35.776a35.84 35.84 0 0 1 35.84 35.776v91.648a83.2 83.2 0 0 1-35.84 158.464 83.264 83.264 0 0 1-35.648-158.464zM881.344 540.032H313.984c-0.896 7.872-2.368 15.552-2.368 23.68a204.032 204.032 0 0 0 204.032 204.032c62.656 0 117.888-28.736 155.328-73.152l0.704 0.384c8.768-11.072 21.76-18.624 36.992-18.624a48 48 0 0 1 48 48 46.976 46.976 0 0 1-9.92 27.904l0.32 0.256c-0.64 0.832-1.344 1.408-1.92 2.24-1.472 1.728-2.88 3.456-4.608 4.992-54.848 63.104-134.656 103.936-224.832 103.936A300.096 300.096 0 0 1 215.68 563.648c0-8.064 1.216-15.808 1.856-23.616h-74.88c-37.888 0-68.608-30.72-68.608-68.608v-498.496c0-37.888 30.72-68.608 68.608-68.608h738.88c37.888 0 68.48 30.72 68.48 68.608V471.424c0 37.888-30.784 68.608-68.672 68.608z m-27.328-540.224H169.92V442.816h684.032v-443.008z"  horiz-adv-x="1024" />

    
    <glyph glyph-name="xiugai" unicode="&#58942;" d="M709.5095532657778 335.1774142767407l8.876834209185184 24.41129225481481c13.315251313777777 35.50733562311111 19.97287636385185 75.45308835081481 19.97287636385185 115.3988410785185 0 188.63271905659258-153.1253846471111 341.7581037037037-341.7581037037037 341.7581037037037-31.06891851851852 0-62.13783703703704-4.438417104592592-90.98754761007407-13.315251313777777-6.657625050074073-2.2192079454814815-13.315251313777777-8.876834209185184-15.53445925925926-15.53445925925926-2.2192079454814815-6.657625050074073 0-15.53445925925926 6.657625050074073-22.19208430933333l195.2903453202963-195.2903453202963-190.8519282157037-190.8519282157037-195.29034410666665 195.2903453202963c-6.657625050074073 6.657625050074073-13.315251313777777 8.876834209185184-22.19208552296296 6.657625050074073-6.657625050074073-2.2192079454814815-13.315251313777777-8.876834209185184-15.53445925925926-15.53445925925926-8.876834209185184-28.849710573037036-13.315251313777777-59.91862909155555-13.315250100148146-90.98754639644444 0-188.63271905659258 153.1253846471111-341.7581037037037 341.7581037037037-341.7581037037037 39.9457527277037 0 77.6722962962963 6.657625050074073 115.39883986488888 19.972875150222222l26.630501413925924 8.876834209185184 201.94797037037037-168.65984269274074c22.19208430933333-22.19208430933333 53.26100282785185-35.50733562311111 86.54913050548149-35.50733562311111s62.13783703703704 13.315251313777777 86.54913050548149 35.50733562311111c46.60337777777777 46.60337777777777 46.60337777777777 124.27567407407408-2.219209159111111 173.09825979733333l-201.94797037037037 168.65984390637036z m168.65984390637036-308.46997723970367c-28.849710573037036-28.849710573037036-77.6722962962963-31.06891851851852-110.96042397392593 2.2192079454814815l-204.16717831585183 168.65984390637036c-6.657625050074073 6.657625050074073-15.53445925925926 11.096042154666666-26.630501413925924 11.096042154666666-4.438417104592592 0-8.876834209185184 0-13.315251313777777-2.2192079454814815l-28.84970935940741-11.096042154666666c-31.06891851851852-11.096042154666666-64.35704498251852-17.75366720474074-99.86438181925925-17.753668418370367-164.2214268017778 0-297.3739338714074 133.15250828325927-297.3739338714074 297.3739350850371 0 13.315251313777777 0 26.630501413925924 2.2192079454814815 39.945751514074075l170.87905185185184-170.87905185185184c13.315251313777777-13.315251313777777 39.9457527277037-13.315251313777777 53.26100404148148 0l199.72876121125924 199.72876242488888c6.657625050074073 6.657625050074073 11.096042154666666 17.75366720474074 11.096042154666666 26.630501413925924 0 8.876834209185184-4.438417104592592 19.97287636385185-11.096042154666666 26.630501413925924L356.65540740740744 767.9230643768889c13.315251313777777 2.2192079454814815 26.630501413925924 2.2192079454814815 39.9457527277037 2.219209159111111 164.2214268017778 0 297.3739338714074-133.15250828325927 297.3739338714074-297.3739350850371 0-33.288126464-6.657625050074073-66.57625414162963-17.75366720474074-99.86438060562962l-11.096042154666666-28.849710573037036c-4.438417104592592-13.315251313777777-2.2192079454814815-28.849710573037036 11.096042154666666-39.945751514074075l204.16717831585183-168.65984390637036c28.849710573037036-28.849710573037036 28.849710573037036-77.6722962962963-2.2192079454814815-108.74121481481481z"  horiz-adv-x="1024" />

    
    <glyph glyph-name="mima3" unicode="&#58889;" d="M711.232 538.424c0 111.504-90.384 201.896-201.888 201.896S307.448 649.928 307.448 538.424c-44.592 0-80.76-36.144-80.76-80.76v-263.512c0-44.6 36.168-80.76 80.76-80.76h403.792C755.84 113.392 792 149.544 792 194.152V457.664c0 44.616-36.16 80.76-80.768 80.76z m-201.888 161.52c89.192 0 161.512-72.32 161.512-161.52H347.832c0 89.208 72.312 161.52 161.512 161.52z m242.264-489.64a56.52 56.52 0 0 0-56.52-56.528H323.608a56.528 56.528 0 0 0-56.536 56.528V441.512a56.528 56.528 0 0 0 56.536 56.528h371.48a56.528 56.528 0 0 0 56.52-56.528v-231.208zM509.344 453.28c-44.608 0-80.76-36.144-80.76-80.752 0-37.632 25.736-69.248 60.568-78.216v-75.568a20.192 20.192 0 0 1 40.384 0v75.568c34.832 8.968 60.568 40.584 60.568 78.216 0 44.592-36.152 80.752-80.76 80.752z m0-121.136a40.392 40.392 0 1 0 0.008 80.776 40.392 40.392 0 0 0-0.008-80.776z"  horiz-adv-x="1024" />

    
    <glyph glyph-name="kechengdingzhi" unicode="&#58939;" d="M919.5 435.2c-10.1 5.9-21.2 9.4-32.5 10.6V696.9c-0.1 27.8-23.8 50.3-52.9 50.3H726.2v30.9c0 29.7-24.1 53.8-53.8 53.8s-53.8-24.1-53.8-53.8v-30.9H333.1v31c0 29.7-24.1 53.8-53.8 53.8s-53.8-24.1-53.8-53.8v-30.9H117.6c-29.2 0-52.9-22.6-52.9-50.3v-646c0-27.7 23.7-50.3 52.9-50.3h505.6l-1.7-47.9c-0.2-6.1 2.9-11.8 8.2-14.9 2.6-1.5 5.4-2.2 8.3-2.2 3 0 6 0.8 8.6 2.4l101.7 62.5H834c29.2 0 52.9 22.6 52.9 50.3V217c0 0.7-0.1 1.3-0.1 2l61.8 106c22.3 38.4 9.3 87.8-29.1 110.2z m-267.9 343c0 11.5 9.3 20.8 20.8 20.8s20.8-9.3 20.8-20.8v-94.9c0-11.5-9.3-20.8-20.8-20.8s-20.8 9.3-20.8 20.8v94.9z m-393.2 0c0 11.5 9.3 20.8 20.8 20.8s20.8-9.3 20.8-20.8v-94.9c0-11.5-9.3-20.8-20.8-20.8s-20.8 9.3-20.8 20.8v94.9zM97.7 696.9c0 9.4 9.1 17.3 19.9 17.3h107.9v-30.9c0-29.7 24.1-53.8 53.8-53.8 29.7 0 53.8 24.1 53.8 53.8v30.9h285.5v-31c0-29.7 24.1-53.8 53.8-53.8s53.8 24.1 53.8 53.8v30.9h107.9c10.8 0 19.9-7.9 19.9-17.3v-113.9H97.7v114z m19.9-663.2c-10.8 0-19.9 7.9-19.9 17.3V563.1H854v-120.9c-18.8-6.1-34.5-18.7-44.5-36L628.6 96c-1.4-2.3-2.1-5-2.2-7.7l-2-54.6H117.6z m537.9-51.3l3.1 84.6 69-40.3-72.1-44.3z m198.4 68.5c0-9.4-9.1-17.3-19.9-17.3h-55.3l75.2 129v-111.7z m-109.7-10.7l-82.1 47.9 162.2 278.2 82.1-47.9-162.2-278.2zM920 341.7l-3.5-6-82.1 47.9 3.5 6c6.4 10.9 16.7 18.7 29 22 12.3 3.2 25.1 1.5 36-4.9 22.6-13.2 30.3-42.3 17.1-65zM594.4 319.6H482.2v89h170c5.5 0 10 4.5 10 10s-4.5 10-10 10h-170v48.3c0 5.5-4.5 10-10 10s-10-4.5-10-10v-48.3h-85.9v48.3c0 5.5-4.5 10-10 10s-10-4.5-10-10v-48.3h-85.9v48.3c0 5.5-4.5 10-10 10s-10-4.5-10-10v-48.3H192c-5.5 0-10-4.5-10-10s4.5-10 10-10h58.3v-89H192c-5.5 0-10-4.5-10-10s4.5-10 10-10h58.3v-89H192c-5.5 0-10-4.5-10-10s4.5-10 10-10h58.3v-39.1c0-5.5 4.5-10 10-10s10 4.5 10 10v39.1h85.9v-39.1c0-5.5 4.5-10 10-10s10 4.5 10 10v39.1h85.9v-39.1c0-5.5 4.5-10 10-10s10 4.5 10 10v39.1h54.7c5.5 0 10 4.5 10 10s-4.5 10-10 10h-54.7v89h112.3c5.5 0 10 4.5 10 10s-4.5 10-10 10zM356.2 210.5h-85.9v89h85.9v-89z m0 109.1h-85.9v89h85.9v-89z m106-109.1h-85.9v89h85.9v-89z m0 109.1h-85.9v89h85.9v-89z"  horiz-adv-x="1024" />

    
    <glyph glyph-name="yonghu1" unicode="&#58902;" d="M958.744-63H65.256c5.43 164.648 99.9 306.757 236.805 379.726A299.076 299.076 0 0 0 212 531c0 165.685 134.315 300 300 300s300-134.315 300-300a299.076 299.076 0 0 0-90.061-214.274C858.844 243.757 953.315 101.648 958.744-63zM752 531c0 132.548-107.452 240-240 240S272 663.548 272 531s107.452-240 240-240 240 107.452 240 240z m-82.542-255.384a300.157 300.157 0 0 0-314.916 0C241.3 225.114 156.782 121.818 132.269-3h759.462C867.218 121.818 782.7 225.114 669.458 275.616z"  horiz-adv-x="1024" />

    
    <glyph glyph-name="kechenggailan" unicode="&#58893;" d="M36.6 47.5V777.7c0 50.3 38.6 91.3 86 91.3h677.8c47.4 0 86-40.9 86-91.3v-409.9H850V777.7c0 30.2-22.2 54.8-49.5 54.8H122.7c-27.3 0-49.5-24.6-49.5-54.8v-730.3c0-30.2 22.2-54.8 49.5-54.8h333v-36.5h-333c-47.5 0.1-86.1 41-86.1 91.4zM695.7-0.5c-91.3 0-165.6 74.3-165.6 165.6s74.3 165.6 165.6 165.6 165.6-74.3 165.6-165.6S787-0.5 695.7-0.5z m0 291.2c-69.3 0-125.6-56.3-125.6-125.6s56.3-125.6 125.6-125.6 125.6 56.3 125.6 125.6-56.4 125.6-125.6 125.6zM936.8-38.1c-7.4-8.2-20.1-8.8-28.2-1.5L793 64.5c-8.2 7.4-8.8 20.1-1.5 28.2 7.4 8.2 20.1 8.8 28.2 1.5l115.5-104.1c8.3-7.3 9-20 1.6-28.2zM677 626.9H237c-11 0-20 9-20 20s9 20 20 20h440c11 0 20-9 20-20s-9-20-20-20zM436.6 220.5h-160c-11 0-20 9-20 20s9 20 20 20h160c11 0 20-9 20-20s-9-20-20-20zM677 428.9H237c-11 0-20 9-20 20s9 20 20 20h440c11 0 20-9 20-20s-9-20-20-20z"  horiz-adv-x="1024" />

    
    <glyph glyph-name="shanchu1" unicode="&#58907;" d="M512 12.8A371.2 371.2 0 1 1 140.8 384 371.2 371.2 0 0 1 512 12.8z m0-64a435.2 435.2 0 1 0 435.2 435.2 435.2 435.2 0 0 0-435.2-435.2zM557.056 384l122.368-122.368a31.744 31.744 0 1 0-45.056-45.056L512 338.944l-122.368-122.368a31.744 31.744 0 1 0-45.056 45.056L466.944 384 344.576 506.368a31.744 31.744 0 1 0 45.056 45.056L512 429.056l122.368 122.368a31.744 31.744 0 1 0 45.056-45.056z"  horiz-adv-x="1024" />

    
    <glyph glyph-name="chaxun" unicode="&#60492;" d="M896 832H128c-35.296 0-64-28.704-64-64v-768c0-35.296 28.704-64 64-64h592a32 32 0 1 1 0 64H128V768h768v-592a32 32 0 1 1 64 0V768c0 35.296-28.704 64-64 64zM791.744 149.50400000000002A206.752 206.752 0 0 1 832 272c0 114.688-93.312 208-208 208S416 386.688 416 272s93.312-208 208-208a206.752 206.752 0 0 1 122.496 40.256l110.88-110.88a31.904 31.904 0 0 1 45.248 0 31.968 31.968 0 0 1 0 45.248l-110.88 110.88zM480 272c0 79.392 64.608 144 144 144s144-64.608 144-144-64.608-144-144-144-144 64.608-144 144zM800 632a32 32 0 0 1-32 32H256a32 32 0 0 1 0-64h512a32 32 0 0 1 32 32zM256 473.344a32 32 0 0 1 0-64h96a32 32 0 0 1 0 64H256z"  horiz-adv-x="1024" />

    
    <glyph glyph-name="quanxian" unicode="&#59273;" d="M531.5 521.4l2.8 2.8c28.1 53.2 28.1 112 0 165.2-28.1 50.4-84.1 81.3-142.9 81.3-28.1 0-56.1-8.5-81.3-22.4-42.1-22.4-70-58.9-81.3-103.8-11.2-42.1-2.8-84.1 19.6-120.4l2.8-5.6h-70v2.8c-22.4 58.9-22.4 117.6 0 170.9 36.6 84 117.8 140 210.2 140 28.1 0 58.9-5.6 86.8-16.8C534.3 793 579.1 750.9 601.5 695c25.3-56.1 25.3-117.6 0-173.7v-2.8h-70v2.9zM702-63c-9.6 5.4-18.8 11.4-27.7 17.7-25 17.7-51.1 40.1-73.2 63.3-25.3 26.3-45.9 53.7-59.9 79.3-13.9 25.5-21.2 49.5-21.2 69.6v210l16.4-5.3c16.7-5.4 33-8.1 48.5-8.1 25.8 0 51.4 4.5 75.2 13.1-3 30.3-26.7 52.3-52.9 52.3-28.1 0-53.2-28.1-53.2-58.9v30.7c0 33.6-25.3 58.9-53.2 58.9-28.1 0-53.2-28.1-53.2-58.9V594.1c0 33.6-25.3 58.9-53.2 58.9-28.1 0-50.4-28.1-50.4-58.9v-341.7c0-16.8-11.2-30.8-28.1-30.8h-8.5l-75.7 33.6c-8.5 5.6-16.8 2.8-25.3 5.6-28.1 8.5-53.2-28.1-53.2-58.9 0-19.6 22.4-44.9 33.6-56.1l204.5-210.1h313.5c-1.1 0.3-1.9 0.8-2.8 1.3zM716 244.4c-14.5 0-26.4-11.1-26.4-24.7S701.4 195 716 195s26.5 11.1 26.5 24.7c-0.1 13.6-11.9 24.7-26.5 24.7z m110.6 78.1c-40.9 0-79.6 12.4-110.6 33.9-31-21.5-69.7-33.9-110.6-33.9-14.2 0-29 2.5-44.1 7.3v-162.7c0-15.1 5.8-33.6 16.6-53.6 11.3-20.8 28.2-43.1 48.8-64.6 18.4-19.2 39.7-37.6 60.2-52.1 7.2-5.2 14.8-9.9 22.4-14.3 2.9-1.7 6.5-1.6 9.5 0.1 7.8 4.6 15.3 9.6 22.7 14.9 22.1 15.8 42.7 33.5 61.8 52.9 21.4 21.8 38.8 44.2 50.5 64.7 11.2 19.6 17 37.7 17 52.2V329.9c-15.2-5-29.9-7.4-44.2-7.4z m-93.9-168.7v-71c-0.1-8.6-7.7-15.6-16.9-15.5-9 0.1-16.4 6.9-16.5 15.5v71c-31.8 7-55.6 33.9-55.6 65.9 0 37.3 32.5 67.7 72.3 67.7 39.9 0 72.3-30.3 72.3-67.7 0-31.9-23.8-58.8-55.6-65.9z"  horiz-adv-x="1024" />

    
    <glyph glyph-name="icon--shanchu" unicode="&#58913;" d="M728.32 833.9968a38.4 38.4 0 1 1-33.28-69.2224A424.96 424.96 0 0 0 934.4 384c0-232.9088-189.4912-422.4-422.4-422.4S89.6 151.09119999999996 89.6 384 279.0912 806.4 512 806.4a38.4 38.4 0 0 1 0 76.8C236.7488 883.2 12.8 659.2512 12.8 384s223.9488-499.2 499.2-499.2 499.2 223.9488 499.2 499.2a502.1184 502.1184 0 0 1-282.88 449.9968zM731.4432 564.992a38.4 38.4 0 0 1-65.5872 27.136L512 438.272 358.144 592.1792a38.4 38.4 0 0 1-54.3232-54.272L457.728 384l-153.856-153.856a38.2976 38.2976 0 0 1 27.136-65.536 38.0928 38.0928 0 0 1 27.136 11.264L512 329.67679999999996l153.856-153.856a38.2976 38.2976 0 0 1 65.536 27.136 38.0928 38.0928 0 0 1-11.264 27.136L566.3232 384l153.856 153.856a38.0928 38.0928 0 0 1 11.264 27.136z"  horiz-adv-x="1024" />

    
    <glyph glyph-name="anquan1" unicode="&#59160;" d="M149.32992 728.76032A28.16 28.16 0 0 1 128 701.44v-345.4464a347.4432 347.4432 0 0 1 192.06144-310.76864l181.90336-90.95168a28.16 28.16 0 0 1 25.1904 0l181.90336 90.95168A347.4432 347.4432 0 0 1 901.12 355.98848V701.44a28.16 28.16 0 0 1-21.32992 27.32032l-358.4 89.6a28.16 28.16 0 0 1-13.66016 0l-358.4-89.6z m-11.17696 44.70272l358.4 89.6a74.24 74.24 0 0 0 36.01408 0l358.4-89.6A74.24 74.24 0 0 0 947.2 701.44v-345.4464a393.5232 393.5232 0 0 0-217.53856-351.98464l-181.89824-90.95168a74.24 74.24 0 0 0-66.4064 0l-181.89824 90.95168A393.5232 393.5232 0 0 0 81.92 355.98848V701.44a74.24 74.24 0 0 0 56.23296 72.02304zM535.04 437.76h107.52a23.04 23.04 0 0 0 0-46.08h-107.52v-107.52a23.04 23.04 0 0 0-46.08 0v107.52h-107.52a23.04 23.04 0 1 0 0 46.08h107.52v107.52a23.04 23.04 0 1 0 46.08 0v-107.52z"  horiz-adv-x="1024" />

    
    <glyph glyph-name="chaxun1" unicode="&#58917;" d="M376.5 826c41.4 0 81.5-8.1 119.3-24.1 36.5-15.4 69.3-37.5 97.4-65.7 28.2-28.2 50.3-61 65.7-97.4 16-37.7 24.1-77.9 24.1-119.3s-8.1-81.5-24.1-119.3c-15.4-36.5-37.5-69.3-65.7-97.4-28.2-28.2-61-50.3-97.4-65.7-37.7-16-77.9-24.1-119.3-24.1s-81.5 8.1-119.3 24.1c-36.5 15.4-69.3 37.5-97.4 65.7s-50.3 61-65.7 97.4C78.1 438 70 478.1 70 519.5s8.1 81.5 24.1 119.3c15.4 36.5 37.5 69.3 65.7 97.4 28.2 28.2 61 50.3 97.4 65.7C295 817.9 335.1 826 376.5 826m0 70C168.6 896 0 727.4 0 519.5S168.6 143 376.5 143 753 311.6 753 519.5 584.4 896 376.5 896zM274.5 759.9c8.8 8.8 18 17 27.5 24.6-37.3-13.6-72.2-35.3-102.1-65.2-109.7-109.7-109.7-287.7 0-397.4 33.2-33.2 72.6-56.3 114.4-69.4-13.9 10.1-27.2 21.5-39.8 34.1-130.7 130.7-130.7 342.6 0 473.3zM998.3-102.3c-34.2-34.2-90.2-34.2-124.5 0L622.2 149.4c-34.2 34.2-34.2 90.2 0 124.5 34.2 34.2 90.2 34.2 124.5 0l251.7-251.7c34.2-34.3 34.2-90.3-0.1-124.5z"  horiz-adv-x="1024" />

    
    <glyph glyph-name="yonghu2" unicode="&#58960;" d="M438.272 292.352c-132.608 0-240.64 108.032-240.64 240.64s108.032 240.64 240.64 240.64 240.64-108.032 240.64-240.64-108.032-240.64-240.64-240.64z m0 419.84c-98.816 0-179.2-80.384-179.2-179.2s80.384-179.2 179.2-179.2 179.2 80.384 179.2 179.2-80.384 179.2-179.2 179.2zM832.512-59.904h-30.72c-257.536 1.536-361.984 0-363.008 0H44.032v30.72c0 209.408 165.888 361.984 394.24 361.984s394.24-152.064 394.24-361.984v-30.72z m-725.504 61.44h331.264c0.512 0 96.256 1.536 331.264 0-15.36 157.696-150.016 269.312-331.264 269.312-181.248 0.512-315.904-111.104-331.264-269.312zM715.776 357.888l-35.84 49.664C732.16 445.44 762.88 505.856 762.88 569.856c0 97.792-72.704 182.272-168.96 196.608l9.216 60.928c126.464-18.944 221.184-129.536 221.184-257.536 0-83.968-40.448-162.816-108.544-211.968zM964.096 13.824l-58.368 19.456c8.192 24.576 12.288 50.176 12.288 76.288 0 131.072-107.008 238.08-238.08 238.08V409.6c165.376 0 299.52-134.144 299.52-299.52 0.512-32.768-5.12-65.024-15.36-96.256zM964.096 14.336h-67.072l9.216 20.48h57.856zM603.136 766.464H593.92v61.44l9.216-0.512z"  horiz-adv-x="1024" />

    
    <glyph glyph-name="yonghu3" unicode="&#58904;" d="M512.6-127.20000000000005c-69 0-135.9 13.5-198.9 40.2-60.8 25.7-115.5 62.6-162.4 109.5S67.6 124 41.8 184.79999999999995c-26.6 63-40.2 129.9-40.2 198.9s13.5 135.9 40.2 198.9c25.7 60.8 62.6 115.5 109.5 162.4S252.9 828.7 313.7 854.4C376.7 881 443.6 894.6 512.6 894.6s135.9-13.5 198.9-40.2c60.8-25.7 115.5-62.6 162.4-109.5s83.7-101.5 109.5-162.4c26.6-63 40.2-129.9 40.2-198.9s-13.5-135.9-40.2-198.9c-25.7-60.8-62.6-115.5-109.5-162.4S772.3-61.299999999999955 711.4-87c-63-26.7-129.9-40.2-198.8-40.2z m0 957.8c-246.4 0-446.9-200.5-446.9-446.9 0-246.4 200.5-446.9 446.9-446.9 246.4 0 446.9 200.5 446.9 446.9C959.4 630.1 759 830.6 512.6 830.6zM508.3 207.70000000000005c-68.4 0-132.7 26.6-181.1 75s-75 112.7-75 181.1 26.6 132.7 75 181.1 112.7 75 181.1 75c68.4 0 132.7-26.6 181.1-75s75-112.7 75-181.1-26.6-132.7-75-181.1-112.7-75-181.1-75z m0 448.2c-105.9 0-192.1-86.2-192.1-192.1 0-105.9 86.2-192.1 192.1-192.1 105.9 0 192.1 86.2 192.1 192.1 0 105.9-86.2 192.1-192.1 192.1zM209.6-19.200000000000045c-3.4 0-6.8 0.5-10.2 1.7-16.8 5.6-25.8 23.8-20.2 40.5 11.6 34.5 28.4 66.8 50 96.2 21.4 29 46.9 54.5 76 75.8 60.5 44.2 132.1 67.6 207.3 67.6 75.1 0 146.8-23.4 207.3-67.6 29.1-21.3 54.7-46.8 76-75.8 21.6-29.4 38.4-61.8 50-96.2 5.6-16.8-3.4-34.9-20.2-40.5-16.8-5.6-34.9 3.4-40.5 20.2-39.3 117.2-148.9 196-272.6 196-123.7 0-233.3-78.8-272.6-196-4.4-13.4-16.9-21.9-30.3-21.9z"  horiz-adv-x="1024" />

    
    <glyph glyph-name="kechengfenxi" unicode="&#58894;" d="M917.41383834 864H94.16968865C45.11290396 864 5.33333334 823.9137450000001 5.33333334 774.44804719v-780.89609438c0-49.45291875 39.76679156-89.55195281 88.83635531-89.55195281h823.24414969c49.05678469 0 88.83635531 40.086255 88.83635437 89.55195281V774.44804719C1006.25019271 823.9137450000001 966.45784396 864 917.41383834 864zM317.30841552 222.96493875a37.70944781 37.70944781 0 0 0-37.55610562-37.85001187 37.70944781 37.70944781 0 0 0-37.55610656 37.86279093V415.61408812a37.70944781 37.70944781 0 0 0 37.55610656 37.85001188 37.70944781 37.70944781 0 0 0 37.55610563-37.85001187z m150.22442251 0a37.70944781 37.70944781 0 0 0-37.55610563-37.85001187 37.70944781 37.70944781 0 0 0-37.55610563 37.85001187V608.2632375000001a37.70944781 37.70944781 0 0 0 37.55610563 37.85001187 37.70944781 37.70944781 0 0 0 37.55610562-37.86278999z m148.43542874 0a37.70944781 37.70944781 0 0 0-37.55610562-37.85001187 37.70944781 37.70944781 0 0 0-37.479435 37.85001187V530.82533344a37.70944781 37.70944781 0 0 0 37.55610563 37.86279093 37.70944781 37.70944781 0 0 0 37.55610562-37.85001281z m150.22442251 0a37.70944781 37.70944781 0 0 0-37.55610563-37.85001187 37.70944781 37.70944781 0 0 0-37.55610563 37.85001187V683.96326219a37.70944781 37.70944781 0 0 0 37.55610563 37.85001187 37.70944781 37.70944781 0 0 0 37.59444187-37.85001187z"  horiz-adv-x="1217" />

    
    <glyph glyph-name="kechengguanli1" unicode="&#58977;" d="M220.16 34.133333h-85.333333c-28.16 0-51.2 23.04-51.2 51.2V682.666667c0 28.16 23.04 51.2 51.2 51.2h85.333333c28.16 0 51.2-23.04 51.2-51.2v-597.333334c0-28.16-23.04-51.2-51.2-51.2zM459.093333 34.133333h-85.333333c-28.16 0-51.2 23.04-51.2 51.2V682.666667c0 28.16 23.04 51.2 51.2 51.2h85.333333c28.16 0 51.2-23.04 51.2-51.2v-597.333334c0-28.16-23.04-51.2-51.2-51.2zM904.106667 66.986667l-80.64-27.733334c-26.88-9.386667-55.893333 5.12-65.28 31.573334L563.626667 635.733333c-9.386667 26.88 5.12 55.893333 31.573333 65.28l80.64 27.733334c26.88 9.386667 55.893333-5.12 65.28-31.573334L935.68 132.266667c9.386667-26.88-4.693333-55.893333-31.573333-65.28z"  horiz-adv-x="1024" />

    
    <glyph glyph-name="xueshengguanli" unicode="&#58961;" d="M914.8 136.39999999999998c-1.3 7.5-6.5 13.6-13.3 16.6l-17.7 7.7c-17.9 7.8-28.7 26.4-26.5 45.8l2.1 19.3c0.8 7.6-1.9 15.4-7.8 20.3-15.1 12.6-32.3 22.7-51 29.9-2.4 0.9-4.9 1.3-7.3 1.3-4.8 0-9.5-1.6-13.5-4.4l-17.5-12.7c-7.9-5.7-17.1-8.5-26.3-8.5s-18.4 2.8-26.3 8.5l-12.8 9.3c-5.8 4.2-12.6 6.3-19.4 6.3-4.8 0-9.6-1-14.1-3-15.6-6.9-30.1-15.9-43.1-26.6-5.8-4.9-8.6-12.6-7.8-20.3l2.1-19.3c2.1-19.4-8.6-38-26.5-45.8l-17.7-7.7c-6.8-3-12.1-9.2-13.3-16.6-1.7-9.7-2.6-19.6-2.6-29.7 0-10.1 0.9-20.1 2.6-29.7 1.3-7.5 6.5-13.6 13.3-16.6l17.7-7.7c17.9-7.8 28.7-26.4 26.5-45.8l-2.1-19.3c-0.8-7.6 1.9-15.4 7.8-20.3 15.1-12.6 32.3-22.7 51-29.9 2.4-0.9 4.9-1.3 7.3-1.3 4.8 0 9.5 1.6 13.5 4.4l17.5 12.7c7.9 5.7 17.1 8.5 26.3 8.5s18.4-2.9 26.3-8.5l17.5-12.7c4-2.9 8.7-4.4 13.5-4.4 2.5 0 5 0.4 7.3 1.3 18.7 7.1 35.9 17.3 51 29.9 5.8 4.8 8.6 12.6 7.8 20.3l-2.1 19.3c-2.1 19.4 8.6 38 26.5 45.8l17.7 7.7c6.8 3 12.1 9.1 13.3 16.6 1.7 9.7 2.6 19.6 2.6 29.7 0 10-0.9 19.9-2.5 29.6zM874.1 95l-7.5-3.3c-35.2-15.4-56.1-51.4-51.9-89.5l1-8.7c-6.4-4.5-13.1-8.5-20.1-11.8l-8.3 6c-15.1 10.9-32.8 16.7-51.3 16.7s-36.3-5.8-51.3-16.7l-8.3-6c-7 3.4-13.7 7.3-20.1 11.8l1 8.7c4.2 38.2-16.7 74.2-51.9 89.6l-7.5 3.3c-0.4 4-0.5 7.9-0.5 11.7 0 3.8 0.2 7.8 0.5 11.7l7.5 3.3c35.2 15.4 56.1 51.4 51.9 89.5l-1 8.7c6.4 4.5 13.1 8.5 20.1 11.8l8.3-6c15.1-10.9 32.8-16.7 51.3-16.7s36.3 5.8 51.3 16.7l8.3 6c7-3.4 13.7-7.3 20.1-11.8l-1-8.7c-4.2-38.2 16.7-74.2 51.9-89.5l7.5-3.3c0.4-4 0.5-7.9 0.5-11.7 0-4-0.1-7.9-0.5-11.8zM735.9 170.70000000000005c-35.4 0-64-28.7-64-64s28.7-64 64-64c35.4 0 64 28.7 64 64s-28.7 64-64 64z m0-85.4c-11.8 0-21.3 9.6-21.3 21.3 0 11.8 9.6 21.3 21.3 21.3 11.8 0 21.3-9.6 21.3-21.3 0-11.7-9.5-21.3-21.3-21.3zM768 576c0 141.4-114.6 256-256 256S256 717.4 256 576c0-100.9 58.5-187.8 143.2-229.6C230.3 297.6 106.7 142 106.7-42.700000000000045c0-7.2 0.7-14.2 1.1-21.3h42.7c-0.4 7.1-1.1 14.1-1.1 21.3C149.3 157.60000000000002 311.7 320 512 320c141.4 0 256 114.6 256 256zM512 362.70000000000005c-117.8 0-213.3 95.5-213.3 213.3 0 117.8 95.5 213.3 213.3 213.3S725.3 693.8 725.3 576c0-117.8-95.5-213.3-213.3-213.3z"  horiz-adv-x="1024" />

    
    <glyph glyph-name="yonghu4" unicode="&#58901;" d="M951.215686 12.54902c-10.039216 0-18.823529 8.784314-18.823529 18.823529 0 112.941176-62.745098 214.588235-163.137255 267.294118-5.019608 2.509804-8.784314 7.529412-10.039216 13.803921s1.254902 12.54902 6.27451 16.313726c40.156863 37.647059 61.490196 87.843137 61.490196 143.058823 0 107.921569-87.843137 195.764706-195.764706 195.764706s-195.764706-87.843137-195.764706-195.764706c0-53.960784 22.588235-105.411765 61.490196-143.058823 5.019608-3.764706 6.27451-10.039216 6.27451-16.313726s-5.019608-11.294118-10.039215-13.803921c-100.392157-52.705882-163.137255-154.352941-163.137255-267.294118 0-10.039216-8.784314-18.823529-18.82353-18.823529s-18.823529 8.784314-18.823529 18.823529c0 119.215686 61.490196 227.137255 161.882353 288.627451-36.392157 42.666667-56.470588 95.372549-56.470588 151.843137 0 129.254902 105.411765 233.411765 233.411764 233.411765s233.411765-105.411765 233.411765-233.411765c0-56.470588-20.078431-109.176471-56.470588-151.843137 100.392157-61.490196 161.882353-169.411765 161.882353-288.627451 0-11.294118-8.784314-18.823529-18.82353-18.823529zM120.470588 62.745098c-10.039216 0-18.823529 8.784314-18.823529 18.823529 0 119.215686 61.490196 227.137255 161.882353 288.627451-36.392157 42.666667-56.470588 95.372549-56.470588 151.843138 0 129.254902 105.411765 233.411765 233.411764 233.411764 10.039216 0 18.823529-8.784314 18.82353-18.823529s-8.784314-18.823529-18.82353-18.823529c-107.921569 0-195.764706-87.843137-195.764706-195.764706 0-53.960784 22.588235-105.411765 61.490196-143.058824 5.019608-3.764706 6.27451-10.039216 6.27451-16.313725s-5.019608-11.294118-10.039215-13.803922c-100.392157-52.705882-163.137255-154.352941-163.137255-267.294118 0-10.039216-8.784314-18.823529-18.82353-18.823529zM951.215686 12.54902c-10.039216 0-18.823529 8.784314-18.823529 18.823529 0 112.941176-62.745098 214.588235-163.137255 267.294118-5.019608 2.509804-8.784314 7.529412-10.039216 13.803921s1.254902 12.54902 6.27451 16.313726c40.156863 37.647059 61.490196 87.843137 61.490196 143.058823 0 107.921569-87.843137 195.764706-195.764706 195.764706s-195.764706-87.843137-195.764706-195.764706c0-53.960784 22.588235-105.411765 61.490196-143.058823 5.019608-3.764706 6.27451-10.039216 6.27451-16.313726s-5.019608-11.294118-10.039215-13.803921c-100.392157-52.705882-163.137255-154.352941-163.137255-267.294118 0-10.039216-8.784314-18.823529-18.82353-18.823529s-18.823529 8.784314-18.823529 18.823529c0 119.215686 61.490196 227.137255 161.882353 288.627451-36.392157 42.666667-56.470588 95.372549-56.470588 151.843137 0 129.254902 105.411765 233.411765 233.411764 233.411765s233.411765-105.411765 233.411765-233.411765c0-56.470588-20.078431-109.176471-56.470588-151.843137 100.392157-61.490196 161.882353-169.411765 161.882353-288.627451 0-11.294118-8.784314-18.823529-18.82353-18.823529z"  horiz-adv-x="1070" />

    
    <glyph glyph-name="yonghu5" unicode="&#58887;" d="M792.576 516.608a25.6 25.6 0 0 1 25.2928-25.8048h283.2384A25.6 25.6 0 0 1 1126.4 516.608a25.6 25.6 0 0 1-25.2928 25.8048h-283.2384a25.6 25.6 0 0 1-25.344-25.8048z m303.9232-80.7424H761.856c-16.5376 0-29.9008-11.6224-29.9008-25.7536 0-14.1824 13.312-25.7536 29.9008-25.7536h334.6432c16.4864 0 29.9008 11.5712 29.9008 25.7536 0 14.1312-13.4144 25.7536-29.9008 25.7536z m4.608-106.496h-283.2384a25.6 25.6 0 0 1-25.344-25.7536 25.6 25.6 0 0 1 25.344-25.7536h283.2384A25.6 25.6 0 0 1 1126.4 303.616a25.6 25.6 0 0 1-25.2928 25.8048zM543.0272-128H341.6576C150.8352-128 0-128 0-27.648v20.1216c0 188.16 153.2928 341.1968 341.7088 341.1968h201.2672c188.416 0 341.76-153.0368 341.76-341.1968v-20.0704C884.6848-128 726.3232-128 542.976-128z m-203.1616 405.1456c-158.464 0-287.4368-128.4096-287.4368-286.208v-20.48c0-40.9088 166.0928-40.9088 287.4368-40.9088h204.9536c100.4544 0 287.4368 0 287.4368 40.96v20.3776c0 157.8496-128.9728 286.208-287.4368 286.208H339.8656z m92.416 76.7488a271.4112 271.4112 0 0 0-271.2064 271.0528A271.36 271.36 0 0 0 432.2816 896a271.36 271.36 0 0 0 271.2064-271.0528 271.4624 271.4624 0 0 0-271.2064-271.0528z m-215.3472 271.872c0-118.1696 96.6144-214.3232 215.3472-214.3232 118.784 0 215.3984 96.1536 215.3984 214.3232 0 118.2208-96.6144 214.3232-215.3984 214.3232S216.9344 743.9872 216.9344 625.7664z"  horiz-adv-x="1126" />

    
    <glyph glyph-name="shanchu2" unicode="&#58898;" d="M519.620465 896c-103.924093 0-188.511256-82.467721-192.083349-185.820279H85.015814A48.91386 48.91386 0 0 1 36.101953 661.313488a48.91386 48.91386 0 0 1 48.913861-48.866232h54.010046V64.654884c0-102.852465 69.822512-186.844279 155.909954-186.844279h439.200744c86.087442 0 155.909953 83.491721 155.909954 186.844279V611.899535h48.91386a48.91386 48.91386 0 0 1 48.913861 48.890046 48.91386 48.91386 0 0 1-48.913861 48.866233h-227.756651A191.559442 191.559442 0 0 1 519.620465 896z m-107.234232-177.080558c3.548279 49.771163 46.627721 88.540279 99.851907 88.540279 53.224186 0 96.327442-38.745302 99.351813-88.540279h-199.20372z m-111.997024-752.044651c-30.981953 0-65.083535 39.15014-65.083535 95.041488V608.256h575.488v-546.839814c0-55.915163-34.077767-95.041488-65.059721-95.041488H300.389209v0.500093zM368.116093 99.185116c24.361674 0 44.27014 21.670698 44.27014 48.818605v278.623256c0 27.147907-19.908465 48.818605-44.27014 48.818604-24.33786 0-44.27014-21.670698-44.27014-48.818604v-278.623256c0-27.147907 19.360744-48.818605 44.293954-48.818605z m154.933581 0c24.361674 0 44.293953 21.670698 44.293954 48.818605v278.623256c0 27.147907-19.932279 48.818605-44.293954 48.818604-24.33786 0-44.27014-21.670698-44.270139-48.818604v-278.623256c0-27.147907 19.932279-48.818605 44.293953-48.818605z m132.810419 0c24.33786 0 44.27014 21.670698 44.27014 48.818605v278.623256c0 27.147907-19.932279 48.818605-44.27014 48.818604s-44.27014-21.670698-44.27014-48.818604v-278.623256c0-27.147907 19.360744-48.818605 44.27014-48.818605z"  horiz-adv-x="1024" />

    
    </font>
</defs>
</svg>
